<svg xmlns="http://www.w3.org/2000/svg" version="1.1" viewBox="-5.0 -10.0 110.0 135.0">
 <path d="m95 88.723h-8.5v-18.5c0-0.82812-0.67188-1.5-1.5-1.5h-18.5v-13.5c0-0.82812-0.67188-1.5-1.5-1.5h-5v-8.5h-5v-6.4492c4.0586-1.4141 7.3086-4.5078 8.9102-8.4961h0.58984c0.39844 0 0.79688-0.15625 1.0898-0.46875l8.5-9c0.26172-0.27734 0.41016-0.64844 0.41016-1.0312v-5c0-0.82812-0.67188-1.5-1.5-1.5h-8v-3.5h-30v3.5h-8c-0.82812 0-1.5 0.67188-1.5 1.5v5c0 0.38281 0.14844 0.75 0.41016 1.0312l8.5 9c0.29297 0.3125 0.69141 0.46875 1.0898 0.46875h0.59375c1.6016 3.9844 4.8555 7.0703 8.9062 8.4883v6.457h-5v8.5h-5c-0.82812 0-1.5 0.67188-1.5 1.5v8.5h-18.5c-0.82812 0-1.5 0.67188-1.5 1.5v23.5h-8.5c-0.82812 0-1.5 0.67188-1.5 1.5s0.67188 1.5 1.5 1.5h90c0.82812 0 1.5-0.67188 1.5-1.5s-0.67188-1.5-1.5-1.5zm-23.5-72.445v2.9023l-6.5742 6.9609c0.046875-0.49609 0.074219-1 0.074219-1.5117v-8.3516zm-43 2.9023v-2.9023h6.5v8.3516c0 0.51172 0.027344 1.0156 0.074219 1.5117zm19.184 0.29297 2.3164-4.6953 2.3164 4.6953 5.1836 0.75391-3.75 3.6562 0.88672 5.1602-4.6367-2.4375-4.6367 2.4375 0.88672-5.1602-3.75-3.6562zm-11.184 37.25h27v32h-27zm-20 10h17v22h-17zm50 22v-17h17v17zm2.4883-45.363c-0.28906 0.28906-0.67969 0.42969-1.0586 0.42969-0.39063 0-0.76953-0.14062-1.0586-0.42969-0.58984-0.58984-0.58984-1.5391 0-2.1289 0.58203-0.58203 1.5312-0.58203 2.1211 0 0.57812 0.58984 0.57812 1.5391 0 2.1289zm3.5312-3.5391c-0.28906 0.28906-0.66797 0.44141-1.0586 0.44141-0.37891 0-0.76953-0.14844-1.0586-0.44141-0.58203-0.58984-0.58203-1.5391 0-2.1211 0.58984-0.58984 1.5391-0.58984 2.1211 0 0.58984 0.58203 0.58984 1.5312 0 2.1211zm1.4219-5.6602c0.58203-0.58203 1.5391-0.58203 2.1211 0 0.58984 0.58984 0.58984 1.5391 0 2.1289-0.28906 0.28906-0.67969 0.42969-1.0586 0.42969s-0.76953-0.14062-1.0586-0.42969c-0.58984-0.58984-0.58984-1.5391 0-2.1289zm-50 2.1289c-0.58984-0.58984-0.58984-1.5391 0-2.1289 0.58203-0.58203 1.5312-0.58203 2.1211 0 0.58984 0.58984 0.58984 1.5391 0 2.1289-0.28906 0.28906-0.67969 0.42969-1.0586 0.42969s-0.76953-0.14062-1.0586-0.42969zm7.0703 7.0703c-0.58984-0.58984-0.58984-1.5391 0-2.1289 0.58984-0.58203 1.5312-0.58203 2.1211 0 0.58984 0.58984 0.58984 1.5391 0 2.1289-0.28906 0.28906-0.67969 0.42969-1.0586 0.42969-0.37891 0-0.76953-0.14062-1.0586-0.42969zm-1.4141-5.6602c0.58203 0.58203 0.58203 1.5312 0 2.1211-0.30078 0.28906-0.67969 0.44141-1.0703 0.44141-0.38281 0-0.76172-0.14844-1.0586-0.44141-0.58203-0.58984-0.58203-1.5391 0-2.1211 0.58984-0.58984 1.5391-0.58984 2.1289 0zm-10.988 13.102c-0.070313-0.17969-0.10938-0.37891-0.10938-0.58203 0-0.089844 0.011719-0.19141 0.03125-0.28906 0.019531-0.089844 0.050781-0.19141 0.078125-0.28125 0.039063-0.089844 0.089844-0.17969 0.14062-0.26172 0.058594-0.078125 0.12109-0.16016 0.19141-0.23047 0.070313-0.070312 0.15234-0.12891 0.23047-0.17969 0.082031-0.058593 0.16797-0.10156 0.26172-0.14062 0.089844-0.039063 0.17969-0.070313 0.28125-0.089844 0.48047-0.10156 1 0.058594 1.3477 0.41016 0.070312 0.070312 0.12891 0.15234 0.19141 0.23047 0.050782 0.082031 0.097656 0.17188 0.12891 0.26172 0.039063 0.089843 0.070313 0.19141 0.089844 0.28125 0.019532 0.10156 0.03125 0.19922 0.03125 0.28906 0 0.19922-0.039062 0.39844-0.10938 0.58203-0.082031 0.17969-0.19141 0.33984-0.33203 0.48047-0.28906 0.28906-0.66016 0.44141-1.0586 0.44141-0.40234 0-0.78125-0.15234-1.0586-0.44141-0.14062-0.14062-0.25-0.30078-0.33203-0.48047zm6.3906-2.082c0.83203 0 1.5 0.67969 1.5 1.5 0 0.83203-0.66797 1.5-1.5 1.5s-1.5-0.66797-1.5-1.5c0-0.82031 0.66797-1.5 1.5-1.5zm5.2891 0.03125c0.097657 0.019531 0.19141 0.050781 0.28125 0.089844 0.089844 0.039062 0.17969 0.082031 0.26172 0.14062 0.082031 0.050781 0.16016 0.10938 0.23047 0.17969 0.28125 0.28125 0.44141 0.66797 0.44141 1.0586 0 0.39844-0.16016 0.78125-0.44141 1.0586-0.14062 0.14062-0.30078 0.25-0.48828 0.32812-0.17969 0.082031-0.36719 0.10938-0.57031 0.10938-0.40234 0-0.78125-0.15234-1.0586-0.44141-0.14062-0.14063-0.25-0.30078-0.33203-0.48047-0.070312-0.17969-0.10938-0.37891-0.10938-0.58203 0-0.089844 0.011719-0.19141 0.03125-0.28906 0.019532-0.10156 0.050782-0.19141 0.078125-0.28125 0.039063-0.089844 0.089844-0.17969 0.14062-0.26172 0.058594-0.078125 0.12109-0.16016 0.19141-0.23047 0.35156-0.34766 0.87109-0.51172 1.3516-0.41016zm48.32 2.0508c-0.070313-0.17969-0.10938-0.37891-0.10938-0.58203 0-0.39062 0.16016-0.78125 0.44141-1.0586 0.070313-0.070312 0.15234-0.12891 0.23047-0.17969 0.082031-0.058594 0.16797-0.10156 0.26172-0.14062 0.089844-0.039063 0.17969-0.070313 0.28125-0.089844 0.48047-0.089844 1 0.058594 1.3477 0.41016 0.070312 0.070313 0.12891 0.15234 0.19141 0.23047 0.050782 0.082031 0.097656 0.17188 0.14062 0.26172 0.03125 0.089844 0.058594 0.19141 0.082031 0.28125 0.019532 0.10156 0.03125 0.19922 0.03125 0.28906 0 0.19922-0.039062 0.39844-0.10937 0.58203-0.082032 0.17969-0.19141 0.33984-0.33203 0.48047s-0.30078 0.25-0.48828 0.32812c-0.17969 0.082031-0.36719 0.10938-0.57031 0.10938-0.19922 0-0.39062-0.03125-0.57031-0.10938-0.19141-0.078125-0.34766-0.19141-0.48828-0.32812-0.14062-0.14062-0.25-0.30078-0.33203-0.48047zm-3.6094-2.082c0.83203 0 1.5 0.67969 1.5 1.5 0 0.83203-0.66797 1.5-1.5 1.5s-1.5-0.66797-1.5-1.5c0-0.82031 0.66797-1.5 1.5-1.5zm-6.3906 2.082c-0.070313-0.17969-0.10938-0.37891-0.10938-0.58203 0-0.089844 0.011719-0.19141 0.03125-0.28906 0.019531-0.089844 0.050781-0.19141 0.078125-0.28125 0.039063-0.089844 0.089844-0.17969 0.14062-0.26172 0.058594-0.078125 0.12109-0.16016 0.19141-0.23047 0.070313-0.070312 0.14062-0.12891 0.23047-0.17969 0.082031-0.058593 0.16797-0.10156 0.26172-0.14062 0.089844-0.039063 0.17969-0.070313 0.28125-0.089844 0.48047-0.089844 1 0.058594 1.3477 0.41016 0.070312 0.070312 0.12891 0.15234 0.19141 0.23047 0.050782 0.082031 0.097656 0.17188 0.14062 0.26172 0.03125 0.089843 0.058594 0.17969 0.082031 0.28125 0.019532 0.10156 0.03125 0.19922 0.03125 0.28906 0 0.19922-0.039062 0.39844-0.10937 0.58203-0.082032 0.17969-0.19141 0.33984-0.33203 0.48047-0.28125 0.28906-0.66016 0.44141-1.0586 0.44141-0.19922 0-0.39062-0.03125-0.57031-0.10938-0.19141-0.078125-0.34766-0.19141-0.48828-0.32812-0.14062-0.14062-0.25-0.30078-0.33203-0.48047zm-20.109 19.422v-5c0-0.82812 0.67188-1.5 1.5-1.5s1.5 0.67188 1.5 1.5v5c0 0.82812-0.67188 1.5-1.5 1.5s-1.5-0.67188-1.5-1.5zm-24.5 3v5c0 0.82812-0.67188 1.5-1.5 1.5s-1.5-0.67188-1.5-1.5v-5c0-0.82812 0.67188-1.5 1.5-1.5s1.5 0.67188 1.5 1.5zm5 0v5c0 0.82812-0.67188 1.5-1.5 1.5s-1.5-0.67188-1.5-1.5v-5c0-0.82812 0.67188-1.5 1.5-1.5s1.5 0.67188 1.5 1.5zm42.5 5v5c0 0.82812-0.67188 1.5-1.5 1.5s-1.5-0.67188-1.5-1.5v-5c0-0.82812 0.67188-1.5 1.5-1.5s1.5 0.67188 1.5 1.5zm5 0v5c0 0.82812-0.67188 1.5-1.5 1.5s-1.5-0.67188-1.5-1.5v-5c0-0.82812 0.67188-1.5 1.5-1.5s1.5 0.67188 1.5 1.5zm5 0v5c0 0.82812-0.67188 1.5-1.5 1.5s-1.5-0.67188-1.5-1.5v-5c0-0.82812 0.67188-1.5 1.5-1.5s1.5 0.67188 1.5 1.5z"/>
<text x="0.0" y="117.5" font-size="5.0" font-weight="bold" font-family="Arbeit Regular, Helvetica, Arial-Unicode, Arial, Sans-serif" fill="#000000">Created by Valter Bispo</text><text x="0.0" y="122.5" font-size="5.0" font-weight="bold" font-family="Arbeit Regular, Helvetica, Arial-Unicode, Arial, Sans-serif" fill="#000000">from Noun Project</text></svg>