<?xml version="1.0" encoding="UTF-8" standalone="no"?>
<svg
   version="1.1"
   viewBox="-5 -10 87.499664 87.500282"
   id="svg3"
   sodipodi:docname="Champion Icon.svg"
   inkscape:version="1.3-beta (cedbd6c, 2023-05-28)"
   width="87.499664"
   height="87.500282"
   xmlns:inkscape="http://www.inkscape.org/namespaces/inkscape"
   xmlns:sodipodi="http://sodipodi.sourceforge.net/DTD/sodipodi-0.dtd"
   xmlns="http://www.w3.org/2000/svg"
   xmlns:svg="http://www.w3.org/2000/svg">
  <defs
     id="defs3" />
  <sodipodi:namedview
     id="namedview3"
     pagecolor="#ffffff"
     bordercolor="#000000"
     borderopacity="0.25"
     inkscape:showpageshadow="2"
     inkscape:pageopacity="0.0"
     inkscape:pagecheckerboard="0"
     inkscape:deskcolor="#d1d1d1"
     inkscape:zoom="1.7481481"
     inkscape:cx="2.8601695"
     inkscape:cy="37.46822"
     inkscape:window-width="1907"
     inkscape:window-height="1080"
     inkscape:window-x="0"
     inkscape:window-y="43"
     inkscape:window-maximized="0"
     inkscape:current-layer="svg3" />
  <path
     d="m 60.332005,29.527837 c 0.08984,0.02734 0.17969,0.04297 0.27344,0.05469 h 8.5 c 5.1445,0.02344 9.5273,-3.7344 10.285,-8.8281 l 3.082,-20.02 h 0.0039 c 0.08984,-0.60156 -0.08203,-1.2109 -0.48047,-1.6719 -0.39453,-0.46484 -0.97266,-0.73047 -1.5781,-0.73047 h -12.375 l 0.89062,-5.9414 v 0.00391 c 0.08984,-0.60156 -0.08594,-1.2109 -0.48047,-1.6719 -0.39453,-0.45703 -0.97266,-0.72266 -1.5781,-0.72266 h -56.25 c -0.60547,0 -1.1835999,0.26562 -1.5780999,0.72266 -0.39453,0.46094 -0.57031,1.0703 -0.48047,1.6719 l 0.89062,5.9375 h -12.375 c -0.60547,0 -1.1836,0.26562 -1.5781,0.73047 -0.39844,0.46094 -0.57031,1.0703 -0.48047,1.6719 l 3.082,20.02 h 0.00391 c 0.75781,5.0898 5.1406,8.8516 10.285,8.8281 h 8.4999999 c 0.09375,-0.01172 0.18359,-0.02734 0.27344,-0.05469 3.1914,3.6172 7.6562,5.8516 12.465,6.2383 l -4.8867,14.652 h -0.57812 c -2.3008,0 -4.1641,1.8633 -4.168,4.1641 v 10.418 c 0,0.09766 0.02344,0.19141 0.02734,0.28516 -3.6836,0.9375 -6.2656,4.2461 -6.2773,8.0469 v 2.0859 c 0,0.55078 0.21875,1.082 0.60938,1.4727 0.39063,0.3907 0.92188,0.60938 1.4727,0.60938 h 45.836 c 0.55078,0 1.082,-0.21875 1.4727,-0.60938 0.3907,-0.39063 0.60938,-0.92188 0.60938,-1.4727 v -2.0859 c -0.01172,-3.8008 -2.5938,-7.1094 -6.2773,-8.0469 0.0039,-0.09375 0.02734,-0.1875 0.02734,-0.28516 v -10.418 c -0.0039,-2.3008 -1.8672,-4.1641 -4.168,-4.1641 h -0.57812 l -4.8828,-14.648 -0.0039,-0.0039 c 4.8086,-0.38672 9.2734,-2.6211 12.465,-6.2383 z m 17.656,-27.027 -2.7148,17.621 c -0.45313,3.0547 -3.082,5.3086 -6.168,5.2969 h -6.0312 c 0.86328,-1.75 1.4492,-3.625 1.7383,-5.5547 l 2.6055,-17.363 z m -69.5939999,22.918 c -3.0859,0.01172 -5.7148,-2.2461 -6.168,-5.2969 l -2.71480001,-17.621 H 10.081205 l 2.6055,17.363 c 0.28906,1.9297 0.875,3.8047 1.7383,5.5547 z m 51.1879999,47.914 h -41.664 c 0,-2.3008 1.8633,-4.1641 4.1641,-4.1641 h 33.336 c 2.3008,0 4.1641,1.8633 4.1641,4.1641 z m -6.2461,-8.332 h -29.168 v -10.418 h 29.164 z m -4.9766,-14.582 h -19.219 l 5.3359,-16.008 c 0.21094,-0.63672 0.10547,-1.3359 -0.28516,-1.8789 -0.39453,-0.54297 -1.0234,-0.86328 -1.6914,-0.86328 h -1.2734 c -3.4961,0.01563 -6.8828,-1.2305 -9.5352,-3.5117 -2.6484,-2.2852 -4.3867,-5.4492 -4.8867,-8.9102 l -3.7617,-25.078 h 51.414 l -3.7617,25.078 c -0.5,3.4609 -2.2383,6.625 -4.8867,8.9102 -2.6523,2.2812 -6.0391,3.5273 -9.5352,3.5117 h -1.2734 c -0.66797,0 -1.2969,0.32031 -1.6914,0.86328 -0.39062,0.54297 -0.49609,1.2422 -0.28516,1.8789 z"
     id="path1"
     style="opacity:0.761566;fill:#36adef;fill-opacity:1" />
  <path
     d="m 46.750005,19.992837 -1.5352,-6.1445 3.1992,-3.1094 c 0.53906,-0.52344 0.70703,-1.3203 0.42578,-2.0195 -0.28516,-0.69531 -0.96094,-1.1523 -1.7109,-1.1523 h -4.6836 l -1.9805,-4.9492 v 0.0039 c -0.28125,-0.70312 -0.96094,-1.1641 -1.7148,-1.1641 -0.75386,0 -1.4336,0.46094 -1.7148,1.1641 l -1.9805,4.9453 h -4.6836 c -0.75,0 -1.4258,0.45703 -1.7109,1.1523 -0.28125,0.69922 -0.11328,1.4961 0.42578,2.0195 l 3.1992,3.1094 c 0,0 -0.82031,3.2773 -1.5352,6.1445 -0.17969,0.71484 0.08594,1.4727 0.67578,1.918 0.58984,0.44922 1.3906,0.5 2.0312,0.13281 l 5.293,-3.0234 5.2891,3.0234 c 0.64453,0.36719 1.4414,0.31641 2.0312,-0.13281 0.58984,-0.44531 0.85938,-1.1992 0.67969,-1.918 z"
     id="path2"
     style="fill:#f08e00;fill-opacity:1" />
</svg>
