<svg xmlns="http://www.w3.org/2000/svg" version="1.1" viewBox="-5.0 -10.0 110.0 135.0">
 <path d="m54.219 149.57v-2.5703h-8.4375v2.5703c2.8203-0.070312 5.6406-0.070312 8.4375 0zm23.207-12.449v4.6016l7.8047-2.3008zm0 7.0352v7.8945c11.164 2.3008 18.402 6 18.402 10.152v31.484c0 16.602-91.66 16.602-91.66 0v-31.484c0-4.1484 7.2383-7.8516 18.402-10.152v-7.8945l-12.223-3.5859c-0.51953-0.15625-0.85547-0.63281-0.83594-1.1484-0.023438-0.51953 0.31641-0.99219 0.83594-1.1484l13.082-3.8555c0.60937-0.17969 1.2617 0.17969 1.4414 0.8125 0.042968 0.089844 0.042968 0.20313 0.042968 0.29297v16.082c5.4805-0.99219 11.773-1.6719 18.52-1.9375v-2.6641h-5.6602c-1.2383 0-2.2305-0.99219-2.2305-2.2305v-8.6406c0-1.2422 0.99219-2.2539 2.2305-2.2539h24.473c1.2188 0 2.2305 1.0156 2.2305 2.2539v8.6406c0 1.2383-1.0156 2.2305-2.2305 2.2305h-5.6836v2.6641c6.7656 0.26953 13.035 0.94531 18.516 1.9375v-15.992c0-0.8125 0.72266-1.4219 1.5117-1.1953l13.082 3.8555c1.1055 0.33984 1.1055 1.9609 0 2.3008zm-54.855-7.0352v4.6016l-7.8047-2.3008zm15.316-0.88281h24.246v8.4141h-24.246zm21.629 67.531v-16.059c0-2.0742-1.6914-3.7656-3.7656-3.7656h-11.5c-2.0742 0-3.7695 1.6914-3.7695 3.7656v16.059c6.3359 0.33984 12.723 0.33984 19.035 0zm22.848-34.668c-4.0586-6.8555-27.336-6.6992-32.363-6.6992s-28.285-0.15625-32.367 6.6992c17.594 4.668 47.164 4.668 64.73 0zm-32.363-9.0664c1.918 0 3.7891 0.023438 5.6133 0.089844l4.5781-7.9609c-6.7656-0.38281-13.602-0.38281-20.391 0l4.5977 7.9609c1.832-0.066406 3.707-0.089844 5.6016-0.089844zm-10.285 23.594c-0.99219 1.082-1.5781 2.5234-1.5781 4.082v4.9805c-3.1367-0.22656-6.1367-0.51562-8.9297-0.87891v-9.2461c3.2891 0.47266 6.8086 0.83203 10.508 1.0625zm-1.5781 11.363v8.6367c-3.1367-0.22266-6.1367-0.51562-8.9297-0.87891v-8.707c2.8164 0.41016 5.8164 0.72656 8.9297 0.94922zm10.688-13.395v-6.7227c-7.0586-0.046875-13.711-0.53906-19.617-1.375v6.8359c5.8594 0.76562 12.516 1.2148 19.617 1.2617zm-21.969-8.4375v6.8555c-12.227-1.8242-20.367-5.4336-20.344-8.75v-5.0508c3.5195 3.2031 10.852 5.3906 20.344 6.9453zm0 9.0469v9.293c-12.227-1.8281-20.344-5.3477-20.344-8.7539v-7.4648c3.543 2.9336 10.852 5.3906 20.344 6.9258zm0 11.477v8.7539c-12.227-1.8281-20.344-5.8633-20.344-8.7539v-6.9258c3.543 2.9336 10.852 5.3945 20.344 6.9258zm10.402-41.363 4.5312 7.8945c-5.1172 0.20312-9.8125 0.65234-13.805 1.4414l-8.5039-6.8125c4.918-1.1484 10.988-2.0273 17.777-2.5234zm-20.57 3.25 8.4336 6.7461c-4.9648 1.3086-8.457 3.2695-9.8125 6.1133-5.5273-1.7148-8.7969-4.1289-8.7969-6.2266 0.003906-2.1016 3.8359-4.8516 10.176-6.6328zm43.621 28.059c0.96875 1.082 1.5781 2.5234 1.5781 4.082v4.9805c3.1367-0.22656 6.1133-0.51562 8.9297-0.87891v-9.2461c-3.293 0.47266-6.8359 0.83203-10.508 1.0625zm1.5781 11.363v8.6367c3.1367-0.22266 6.1133-0.51562 8.9297-0.87891v-8.707c-2.8203 0.41016-5.8164 0.72656-8.9297 0.94922zm-10.715-13.395v-6.7227c7.0586-0.046875 13.715-0.53906 19.645-1.375v6.8359c-5.8633 0.76562-12.539 1.2148-19.645 1.2617zm21.992-8.4375v6.8555c12.199-1.8242 20.363-5.4336 20.32-8.75v-5.0508c-3.4961 3.2031-10.848 5.3906-20.32 6.9453zm0 9.0469v9.293c12.199-1.8281 20.32-5.3477 20.32-8.7539v-7.4648c-3.543 2.9336-10.848 5.3906-20.32 6.9258zm0 11.477v8.7539c12.199-1.8281 20.32-5.8633 20.32-8.7539v-6.9258c-3.543 2.9336-10.848 5.3945-20.32 6.9258zm-10.398-41.363-4.5586 7.8945c5.1445 0.20312 9.8359 0.65234 13.828 1.4414l8.4805-6.8125c-4.918-1.1484-10.984-2.0273-17.75-2.5234zm20.547 3.25-8.4141 6.7461c4.9414 1.3086 8.4375 3.2695 9.8125 6.1133 5.5039-1.7148 8.7734-4.1289 8.7734-6.2266 0-2.1016-3.8086-4.8516-10.172-6.6328zm-52.043-75.43h9.4492v-32.5l-11.617-14.301c-0.5625-0.69922-0.88281-1.5117-0.96875-2.3203h-2.9102c-1.1484 0-1.4219-1.1289-0.8125-2.0547 2.5469-3.8789 2.457-6.4961 0.78906-10.578-0.60938-1.5117-1.2188-3-1.7812-4.5117-0.99219-2.6602-0.31641-5.6836 1.7148-7.668 2.8203-2.7305 7.3086-2.707 10.105 0.066406 1.9648 1.9648 2.6172 4.8711 1.6914 7.4883-0.5625 1.5547-1.1953 3.0898-1.8047 4.6211-1.1758 2.8203-1.7617 5.1641-0.54297 8.1641 0.54297 0.26953 1.0391 0.65234 1.4414 1.1484l7.8711 9.7188h12.203l7.8711-9.7188c3.7227-4.5781 10.645 1.0352 6.9258 5.6367l-11.613 14.309v32.5h9.4492c0.65234 0 1.1719 0.54297 1.1719 1.1953v7.3555h21.742c0.65625 0 1.1953 0.51953 1.1953 1.1953v4.7812c0 1.5312-2.3477 1.5312-2.3477 0v-3.6328h-20.59v3.6328c0 1.5586-2.3438 1.5586-2.3438 0v-12.18h-35.117v12.18c0 1.5586-2.3672 1.5586-2.3672 0l-0.003907-3.6328h-20.566v3.6328c0 1.5312-2.3477 1.5312-2.3477 0v-4.7812c0-0.67969 0.54297-1.1953 1.1953-1.1953h21.719v-7.3555c0-0.65234 0.54297-1.1953 1.1992-1.1953zm18.449-66.965h-2.5273v2.5508c0 1.5352-2.3477 1.5352-2.3477 0v-2.5508h-2.5508c-1.5586 0-1.5586-2.3438 0-2.3438h2.5508l0.003906-2.5508c0-1.5352 2.3477-1.5352 2.3477 0v2.5508h2.5273c1.5508-0.003906 1.5508 2.3438-0.003906 2.3438zm-18.09 29.5h-2.5508v2.5234c0 1.5586-2.3477 1.5586-2.3477 0v-2.5234h-2.5273c-1.5547 0-1.5547-2.3672 0-2.3672h2.5273v-2.5273c0-1.5547 2.3477-1.5547 2.3477 0v2.5273h2.5469c1.5586 0 1.5586 2.3672 0.003906 2.3672zm39.449 14.055h-2.5508v2.5469c0 1.5312-2.3438 1.5312-2.3438 0v-2.5469h-2.5273c-1.5586 0-1.5586-2.3477 0-2.3477h2.5273v-2.5508c0-1.5547 2.3438-1.5547 2.3438 0v2.5508h2.5508c1.5586 0 1.5586 2.3477 0 2.3477zm12.27-28.195h-2.5508v2.5469c0 1.5586-2.3477 1.5586-2.3477 0v-2.5469h-2.5273c-1.5586 0-1.5586-2.3477 0-2.3477h2.5273v-2.5273c0-1.5547 2.3477-1.5547 2.3477 0v2.5273h2.5508c1.5547 0.003906 1.5547 2.3477 0 2.3477zm-66.516 38.23h-2.5234v2.5234c0 1.5586-2.3477 1.5586-2.3477 0v-2.5234h-2.5508c-1.5547 0-1.5547-2.3672 0-2.3672h2.5508v-2.5234c0-1.5547 2.3477-1.5547 2.3477 0v2.5234h2.5234c1.5586 0 1.5586 2.3672 0 2.3672zm69.199 3.7891h-2.5508v2.5273c0 1.5586-2.3477 1.5586-2.3477 0v-2.5273h-2.5234c-1.5547 0-1.5547-2.3477 0-2.3477h2.5234v-2.5469c0-1.5586 2.3477-1.5586 2.3477 0v2.5469h2.5508c1.5586 0 1.5586 2.3477 0 2.3477zm-61.531 7.9609c-0.96875 0-1.7812 0.79297-1.7812 1.7812 0 0.99609 0.8125 1.7852 1.7812 1.7852 0.99219 0 1.8047-0.78906 1.8047-1.7852 0-0.98828-0.8125-1.7812-1.8047-1.7812zm-0.089844-25.078c-0.99219 0-1.7812 0.8125-1.7812 1.8047 0 0.99219 0.78906 1.7812 1.7812 1.7812 0.99219 0 1.8047-0.78906 1.8047-1.7812 0-0.99609-0.8125-1.8047-1.8047-1.8047zm39.695-40.375c-0.99219 0-1.8047 0.8125-1.8047 1.7812 0 0.99219 0.8125 1.8047 1.8047 1.8047 0.97266 0 1.7812-0.8125 1.7812-1.8047 0.003906-0.96875-0.80859-1.7812-1.7812-1.7812zm19.984 31.824c-0.98828 0-1.8047 0.8125-1.8047 1.8047 0 0.97266 0.8125 1.7812 1.8047 1.7812 0.99219 0 1.7852-0.8125 1.7852-1.7812 0-0.99219-0.79297-1.8047-1.7852-1.8047zm-19.801 21.879c-0.99219 0-1.7812 0.8125-1.7812 1.8047 0 0.99219 0.78906 1.7812 1.7812 1.7812 0.99219 0 1.8047-0.78906 1.8047-1.7812 0-0.99219-0.81641-1.8047-1.8047-1.8047zm-28.938 2.4375c-0.99219 0-1.7812 0.8125-1.7812 1.8047 0 0.99219 0.78906 1.7812 1.7812 1.7812 0.99219 0 1.8047-0.78906 1.8047-1.7812-0.003906-0.99609-0.8125-1.8047-1.8047-1.8047zm15.809-6.7031v17.641h5.7734v-32.906c0-0.29297 0.10938-0.53906 0.29297-0.76562l11.84-14.613c1.7578-2.1445-1.5352-4.8047-3.2695-2.6602l-8.1445 10.039c-0.29297 0.35938-0.47266 0.53906-1.0391 0.53906l-13.188-0.003906c-0.58594 0-0.78906-0.17969-1.1289-0.60938l-8.0977-9.9727c-1.7383-2.1445-5.0312 0.51953-3.2695 2.6602l11.84 14.613c0.17969 0.20312 0.29297 0.47656 0.29297 0.76562v32.906h5.75v-17.633c0-1.5547 2.3477-1.5547 2.3477 0zm-1.1719-26.949c4.0156 0 7.2617-3.2461 7.2617-7.2617 0-3.9922-3.2461-7.2617-7.2617-7.2617-3.9922 0-7.2383 3.2695-7.2383 7.2617-0.003906 4.0117 3.2461 7.2617 7.2383 7.2617zm0-12.156c2.7305 0 4.918 2.1875 4.918 4.8945 0 2.7305-2.1875 4.918-4.918 4.918-2.707 0-4.8945-2.1875-4.8945-4.918 0-2.7109 2.1875-4.8945 4.8945-4.8945zm-21.496 5.2969c0.046874-0.089844 0.089843-0.17969 0.13672-0.26953h-1.2188c-0.046875 0.089843-0.089844 0.17969-0.13672 0.26953zm3.2266-10.328c-0.67578 2.5703-2.0273 5.0977-3.3164 7.4219-0.023438 0.089844-0.046875 0.20312-0.089844 0.31641h3.6758c-0.78906-2.9102-0.29297-5.3477 0.76562-8.0508-0.33594 0.13281-0.69531 0.24609-1.0352 0.3125zm-1.5586-2.1641c2.6602 0 4.8516-2.1641 4.8516-4.8477s-2.1875-4.8477-4.8516-4.8477c-2.6836 0-4.8477 2.1641-4.8477 4.8477 0 2.6797 2.168 4.8477 4.8477 4.8477zm-2.6133 1.8477c0.33984 0.85547 0.65234 1.7383 0.85547 2.6406 0.046875-0.089844 0.066406-0.17969 0.11328-0.25 0.26953-0.63281 0.53906-1.2852 0.74219-1.9609-0.58203-0.070312-1.1484-0.20312-1.7109-0.42969zm32.887 299.56c1.6914 0 3.0625-1.375 3.0625-3.0664 0-1.6914-1.375-3.0469-3.0625-3.0469-1.6914 0-3.0469 1.3555-3.0469 3.0469 0 1.6914 1.3555 3.0664 3.0469 3.0664zm-10.445 13.895c1.2852 0 2.3672-0.76562 2.8438-1.8945h5.0312v3.9258l-15.746-0.003906v-3.9258h5.0508c0.45312 1.1328 1.5352 1.8984 2.8203 1.8984zm2.8438-4.2188c-0.45312-1.1055-1.5547-1.8945-2.8438-1.8945-1.2852 0-2.3672 0.78906-2.8203 1.8945h-7.3281s-0.023438 5.4375-0.023438 6.2461h-3.7227v-12.445h27.812v12.445h-3.7461v-6.2266zm-2.8438 1.8711c0.40625 0 0.72266-0.31641 0.72266-0.69922 0-0.40625-0.31641-0.72266-0.72266-0.72266-0.38281 0-0.69922 0.3125-0.69922 0.72266 0 0.38672 0.31641 0.69922 0.69922 0.69922zm-29.23-84.984c-0.60937 0-1.082 0.49609-1.082 1.082v89.496c0 0.58594 0.47656 1.082 1.082 1.082h58.484c0.58594 0 1.082-0.49609 1.082-1.082v-89.496c0-0.58594-0.49609-1.082-1.082-1.082zm45.449 2.3242h11.797v42.355h-18.387c-0.69531-4.8945-4.6445-8.5234-9.6289-8.5234s-8.9336 3.6328-9.6094 8.5234h-18.402v-42.355h11.797v14.66c0 0.046875 0.046874 0.089844 0.089843 0.089844h7.9414c1.2852 3.4961 4.4219 5.8398 8.1875 5.8398 3.7656 0 6.9023-2.3477 8.1875-5.8398h7.9375c0.070312 0 0.09375-0.046876 0.09375-0.089844v-14.66zm-26.391 6.4492h20.344v-6.4492h3.7461v12.43h-27.812v-12.43h3.7227v6.4492zm10.172 11.82c-2.5742 0-4.4453-1.3555-5.6836-3.5195h11.391c-1.2617 2.1641-3.1133 3.5195-5.707 3.5195zm-7.8711-18.27h15.742v4.1289h-15.742zm24.09 87.035v-14.68c0-0.046875-0.023437-0.09375-0.09375-0.09375h-7.9375l-0.042969-0.13281c-1.2656-3.4297-4.5117-5.6836-8.1445-5.6836-3.6328 0-6.8828 2.2578-8.1211 5.6836l-0.066407 0.13281h-7.9414c-0.042969 0-0.089844 0.046875-0.089844 0.09375v14.68h-11.793v-42.379h18.402l0.023438 0.20312c0.67578 4.7812 4.7578 8.3477 9.5859 8.3477 4.9844 0 8.9336-3.6523 9.6289-8.5508h18.383v42.379zm-10.512-14.77h-11.391l0.17969-0.33594c1.1523-1.9648 3.2266-3.1797 5.5039-3.1797 2.2773 0 4.375 1.2148 5.5039 3.1797zm-5.707-36.133c3.7461 0 6.5859 2.6172 7.2852 6.2266h-14.574c0.72656-3.6094 3.5469-6.2266 7.2891-6.2266zm0 14.75c-3.7422 0-6.5625-2.6172-7.2852-6.2266h14.574c-0.70312 3.6094-3.543 6.2266-7.2891 6.2266zm19.691-10.621c1.6914 0 3.0664-1.375 3.0664-3.0664s-1.375-3.0664-3.0664-3.0664c-1.6914 0-3.0664 1.375-3.0664 3.0664 0 1.6875 1.375 3.0664 3.0664 3.0664zm0-2.3477c0.38672 0 0.69922-0.3125 0.69922-0.72266 0-0.38281-0.3125-0.69922-0.69922-0.69922-0.38281 0-0.72266 0.31641-0.72266 0.69922 0.003907 0.41016 0.33984 0.72266 0.72266 0.72266zm-39.383 2.3477c1.6914 0 3.0664-1.375 3.0664-3.0664s-1.375-3.0664-3.0664-3.0664-3.0469 1.375-3.0469 3.0664c0.003906 1.6875 1.3555 3.0664 3.0469 3.0664zm0-2.3477c0.40625 0 0.72266-0.3125 0.72266-0.72266 0-0.38281-0.3125-0.69922-0.72266-0.69922-0.38281 0-0.69922 0.31641-0.69922 0.69922 0.003906 0.41016 0.31641 0.72266 0.69922 0.72266zm32.074 13.621c1.6914 0 3.0664-1.3711 3.0664-3.0664 0-1.668-1.375-3.0469-3.0664-3.0469s-3.0664 1.3789-3.0664 3.0469c0 1.6953 1.375 3.0664 3.0664 3.0664zm0-2.3438c0.38281 0 0.72266-0.31641 0.72266-0.72266 0-0.38281-0.33984-0.69922-0.72266-0.69922-0.38281 0-0.69922 0.31641-0.69922 0.69922 0.003906 0.40625 0.31641 0.72266 0.69922 0.72266zm-24.766 2.3438c1.6914 0 3.0703-1.3711 3.0703-3.0664 0-1.668-1.3789-3.0469-3.0703-3.0469-1.6914 0-3.0469 1.3789-3.0469 3.0469 0.003906 1.6953 1.3555 3.0664 3.0469 3.0664zm0-2.3438c0.40625 0 0.72266-0.31641 0.72266-0.72266 0-0.38281-0.3125-0.69922-0.72266-0.69922-0.38281 0-0.69922 0.31641-0.69922 0.69922 0 0.40625 0.31641 0.72266 0.69922 0.72266zm22.828-21.676c1.6914 0 3.0625-1.3516 3.0625-3.043s-1.375-3.0664-3.0625-3.0664c-1.6914 0-3.0469 1.375-3.0469 3.0664s1.3555 3.043 3.0469 3.043zm0-2.3438c0.40234 0 0.72266-0.31641 0.72266-0.69922 0-0.40625-0.31641-0.72266-0.72266-0.72266-0.38281 0-0.69922 0.31641-0.69922 0.72266 0 0.38281 0.31641 0.69922 0.69922 0.69922zm-20.93 2.3438c1.6914 0 3.0664-1.3516 3.0664-3.043s-1.375-3.0664-3.0664-3.0664-3.0664 1.375-3.0664 3.0664c-0.003906 1.6914 1.3711 3.043 3.0664 3.043zm0-2.3438c0.38281 0 0.71875-0.31641 0.71875-0.69922 0-0.40625-0.33984-0.72266-0.71875-0.72266-0.38672 0-0.69922 0.31641-0.69922 0.72266-0.003907 0.38281 0.3125 0.69922 0.69922 0.69922zm30.176 39.828c1.6914 0 3.0664-1.375 3.0664-3.0664 0-1.6914-1.375-3.0664-3.0664-3.0664-1.6914 0-3.0664 1.375-3.0664 3.0664 0 1.6914 1.375 3.0664 3.0664 3.0664zm0-2.3672c0.38672 0 0.69922-0.3125 0.69922-0.69531 0-0.38672-0.3125-0.72266-0.69922-0.72266-0.38281 0-0.72266 0.33594-0.72266 0.72266 0.003907 0.38281 0.33984 0.69531 0.72266 0.69531zm-30.176 8.4805c1.6914 0 3.0664-1.375 3.0664-3.0664 0-1.6914-1.375-3.0469-3.0664-3.0469s-3.0664 1.3555-3.0664 3.0469c-0.003906 1.6914 1.3711 3.0664 3.0664 3.0664zm-9.207-6.1133c1.6914 0 3.0664-1.375 3.0664-3.0664 0-1.6914-1.375-3.0664-3.0664-3.0664s-3.0469 1.375-3.0469 3.0664c0.003906 1.6914 1.3555 3.0664 3.0469 3.0664zm0-2.3672c0.40625 0 0.72266-0.3125 0.72266-0.69531 0-0.38672-0.3125-0.72266-0.72266-0.72266-0.38281 0-0.69922 0.33594-0.69922 0.72266 0.003906 0.38281 0.31641 0.69531 0.69922 0.69531zm9.207 6.1367c0.38281 0 0.71875-0.31641 0.71875-0.72266 0-0.38672-0.33984-0.69922-0.71875-0.69922-0.38672 0-0.69922 0.31641-0.69922 0.69922-0.003907 0.40625 0.3125 0.72266 0.69922 0.72266zm20.93 0c0.40234 0 0.72266-0.31641 0.72266-0.72266 0-0.38672-0.31641-0.69922-0.72266-0.69922-0.38281 0-0.69922 0.31641-0.69922 0.69922 0 0.40625 0.31641 0.72266 0.69922 0.72266z" fill-rule="evenodd"/>
<text x="0.0" y="117.5" font-size="5.0" font-weight="bold" font-family="Arbeit Regular, Helvetica, Arial-Unicode, Arial, Sans-serif" fill="#000000">Created by Rizki 2putri</text><text x="0.0" y="122.5" font-size="5.0" font-weight="bold" font-family="Arbeit Regular, Helvetica, Arial-Unicode, Arial, Sans-serif" fill="#000000">from Noun Project</text></svg>