<?xml version="1.0" encoding="UTF-8" standalone="no"?>
<svg
   version="1.1"
   viewBox="-5 -10 86.503044 76.758583"
   id="svg5"
   sodipodi:docname="Cycling Icon (1).svg"
   inkscape:version="1.3-beta (cedbd6c, 2023-05-28)"
   width="86.503044"
   height="76.758583"
   xmlns:inkscape="http://www.inkscape.org/namespaces/inkscape"
   xmlns:sodipodi="http://sodipodi.sourceforge.net/DTD/sodipodi-0.dtd"
   xmlns="http://www.w3.org/2000/svg"
   xmlns:svg="http://www.w3.org/2000/svg">
  <defs
     id="defs5" />
  <sodipodi:namedview
     id="namedview5"
     pagecolor="#ffffff"
     bordercolor="#000000"
     borderopacity="0.25"
     inkscape:showpageshadow="2"
     inkscape:pageopacity="0.0"
     inkscape:pagecheckerboard="0"
     inkscape:deskcolor="#d1d1d1"
     inkscape:zoom="1.7481481"
     inkscape:cx="-103.82415"
     inkscape:cy="20.307203"
     inkscape:window-width="1920"
     inkscape:window-height="1172"
     inkscape:window-x="0"
     inkscape:window-y="43"
     inkscape:window-maximized="1"
     inkscape:current-layer="svg5" />
  <path
     d="m 11.400475,38.613801 c -4.7422001,0 -9.0156001,2.8555 -10.82800015,7.2383 -1.81639995,4.3789 -0.8125,9.4219 2.53910005,12.773 3.3516,3.3555 8.3945001,4.3555 12.7770001,2.543 4.3789,-1.8164 7.2344,-6.0898 7.2344,-10.832 -0.0078,-6.4688 -5.25,-11.715 -11.723,-11.723 z m 8.4492,10.16 h -5.668 l 2.9453,-4.832 c 1.418,1.2656 2.375,2.9648 2.7227,4.832 z m -8.4492,10.16 c -2.5586001,0.0078 -4.9844001,-1.1211 -6.6250001,-3.0859 -1.6367,-1.9609 -2.3203,-4.5508 -1.8555,-7.0664 0.46094,-2.5156 2.0195,-4.6953 4.25,-5.9453 2.2305,-1.25 4.9023001,-1.4414 7.2891001,-0.52344 l -4.3945,7.2109 c -0.2929701,0.48438 -0.3046901,1.0859 -0.02734,1.5781 0.27734,0.49219 0.79688,0.79688 1.3633,0.79688 h 8.4492 c -0.75781,4.0742 -4.3086,7.0312 -8.4492,7.0352 z"
     id="path1" />
  <path
     d="m 65.080475,33.914801 c -1.0586,0.0039 -2.1133,0.10547 -3.1523,0.3125 l -1.9727,-6.6406 10.637,0.0039 0.0039,-0.0039 c 1.4844,0.0039 2.9141,-0.58594 3.9648,-1.6367 1.0547,-1.0508 1.6445,-2.4766 1.6445,-3.9609 0,-1.4883 -0.58984,-2.9141 -1.6445,-3.9648 -1.0508,-1.0508 -2.4766,-1.6406 -3.9648,-1.6367 h -9.4219 c -0.13281,-0.0039 -0.24609,-0.10156 -0.26953,-0.23437 -2.3438,-10.8630004 -6.2344,-16.82800037 -11.566,-17.7270004 -4.4648,-0.75 -9.832,0.62109003 -17.945,4.5898 -3.0742,1.4492 -5.9805,3.2422 -8.6523,5.3477 l -1.0781,0.80469 v -0.0039 c -2.7891,2.0586004 -4.25,5.4609004 -3.8086,8.9023004 h -1.875 c -0.86328,0 -1.5625,0.69922 -1.5625,1.5625 0,0.85938 0.69922,1.5625 1.5625,1.5625 h 2.8594 c 0.09375,0.18359 0.15625,0.375 0.26562,0.55078 1.2617,2.1328 2.6367,4.1953 4.125,6.1797 l -4.6641,7.6602 h -0.0039 c -4.2227,-2.0469 -9.1172001,-2.1875 -13.4490001,-0.38672 -4.33200005,1.8008 -7.6875,5.3672 -9.2148,9.8008 -1.5312,4.4336 -1.0898,9.3125 1.2109,13.402 2.30079995,4.0859 6.2383,6.9961 10.824,7.9883 4.5859001,0.99219 9.3750001,-0.02344 13.1600001,-2.7891 3.7891,-2.7695 6.207,-7.0273 6.6523,-11.699 h 1.7852 v 0.17578 c -0.0039,3.4219 2.7305,6.2109 6.1523,6.2812 3.418,0.07031 6.2656,-2.6094 6.4023,-6.0234 l 0.35156,-8.5938 13.754,-16.156 h 0.50781 l 2.2383,7.5352 v 0.0039 c -5.082,2.0625 -8.7969,6.5273 -9.8984,11.902 -1.1015,5.3747 0.55859,10.941 4.4219,14.836 3.8594,3.8945 9.4141,5.6016 14.797,4.5469 5.3828,-1.0547 9.8828,-4.7305 11.988,-9.7969 2.1055,-5.0625 1.543,-10.844 -1.5039,-15.406 -3.0508,-4.5625 -8.1758,-7.2969 -13.66,-7.2891 z m -53.68,29.719 c -5.3789001,0 -10.2270001,-3.2383 -12.28500015,-8.207 -2.05799995,-4.9687 -0.92187995,-10.688 2.88280005,-14.492 3.8047,-3.8008 9.5234001,-4.9414 14.4920001,-2.8828 4.9686,2.0586 8.207,6.9062 8.207,12.285 -0.0078,7.3398 -5.957,13.289 -13.297,13.297 z m 16.344,-14.859 c -0.44531,-4.5977 -2.8125,-8.7969 -6.5156,-11.562 l 4.0977,-6.7227 c 1.3086,1.5352 2.668,3.0391 4.0781,4.4648 0.07813,0.07813 0.125,0.1875 0.125,0.30078 v 13.52 z m 8.0664,6.457 c -1.7422,0 -3.1562,-1.4141 -3.1562,-3.1562 v -16.82 c 0,-0.9375 -0.37109,-1.8359 -1.0273,-2.4961 -1.6406,-1.6562 -3.2227,-3.4062 -4.7109,-5.207 -1.8984,-2.3398 -3.6133,-4.8164 -5.1328,-7.4141 -0.20703,-0.34766 -0.38281,-0.71484 -0.52344,-1.0938 l -0.0078,-0.02734 c -0.94531,-2.6797 -0.02344,-5.6641 2.2734,-7.3398 l 1.0898,-0.8125 h -0.0039 c 2.5195,-1.9844004 5.2539,-3.6758004 8.1562,-5.0430004 6.2109,-3.0391 10.703,-4.4648 14.188,-4.4648 v 0.0039 c 0.625,-0.0039 1.25,0.04687 1.8633,0.14844 3.8906,0.65625 7.0117,5.9453 9.0312,15.3050004 0.33984,1.5664 1.7227,2.6875 3.3242,2.6992 h 9.4219 c 0.65625,0 1.2891,0.25781 1.7539,0.72266 0.46484,0.46484 0.72656,1.0938 0.72656,1.7539 0,0.65625 -0.26172,1.2891 -0.72656,1.75 -0.46484,0.46484 -1.0977,0.72656 -1.7539,0.72266 l -15.898,-0.0039 h -0.0039 c -0.58984,-0.0039 -1.1289,-0.33984 -1.3906,-0.87109 l -3.7383,-7.4727 h 0.0039 c -0.78125,-1.5742 -2.5859,-2.3594 -4.2656,-1.8516 l -10.113,3.0195 h -0.0039 c -0.73828,0.22266 -1.3398,0.76172 -1.6367,1.4727 -0.29688,0.71484 -0.25781,1.5195 0.10547,2.1992 l 5.7109,10.727 v 0.0039 c 0.26172,0.49219 0.39062,1.0508 0.36719,1.6094 l -0.76953,18.91 c -0.06641,1.6953 -1.4609,3.0312 -3.1523,3.0273 z m 0.92188,-35.148 9.4648,-2.8281 c 0.22656,-0.0625 0.46875,0.04297 0.57422,0.25781 l 2.2227,4.4453 -11.27,-0.0039 z m 5.3945,10.129 -2.7344,-5.1328 h 11.176 c 0.44141,0.84375 1.1289,1.5273 1.9727,1.9688 l -9.9023,11.629 0.21484,-5.2539 c 0.04687,-1.1172 -0.20703,-2.2227 -0.73047,-3.207 z m 22.953,33.422 c -5.3789,0 -10.227,-3.2383 -12.285,-8.207 -2.0586,-4.9688 -0.92188,-10.688 2.8828,-14.492 3.8008,-3.8008 9.5234,-4.9414 14.492,-2.8828 4.9686,2.0586 8.207,6.9062 8.207,12.285 -0.0078,7.3398 -5.957,13.289 -13.297,13.297 z"
     id="path2"
     style="fill:#36adef;fill-opacity:1" />
  <path
     d="m 65.080475,38.613801 c -1.1211,0.0039 -2.2344,0.16406 -3.3047,0.48438 -0.0078,0.0039 -0.01953,0 -0.02734,0.0039 l -0.01953,0.0078 c -5.8789,1.7656 -9.3945,7.7695 -8.0625,13.758 1.332,5.9885 7.0664,9.9336 13.137,9.0391 6.0703,-0.89844 10.422,-6.3281 9.9688,-12.449 -0.45312,-6.1172 -5.5547,-10.852 -11.691,-10.844 z m 0,20.32 c -3.9766,0.0039 -7.4336,-2.7188 -8.3594,-6.5859 -0.92969,-3.8633 0.91406,-7.8594 4.457,-9.6641 l 2.4023,8.0977 h 0.0039 c 0.24219,0.82812 1.1133,1.3008 1.9414,1.0547 0.82812,-0.24609 1.2969,-1.1172 1.0508,-1.9453 l -2.4023,-8.1016 c 2.3438,-0.25 4.6914,0.47656 6.4844,2.0078 1.7969,1.5312 2.8828,3.7305 3.0078,6.0859 0.125,2.3555 -0.72656,4.6602 -2.3477,6.3711 -1.625,1.7109 -3.8789,2.6797 -6.2383,2.6797 z"
     id="path3" />
  <path
     d="m 66.732475,9.9388006 c 4.0312,0 7.6641,-2.4297 9.207,-6.1562 1.543,-3.72269997 0.69141,-8.0117 -2.1602,-10.863 -2.8516,-2.8516 -7.1367,-3.7030996 -10.863,-2.1602 -3.7227,1.543 -6.1523,5.1758 -6.1523,9.21090003 0.0039,5.49999997 4.4648,9.96089997 9.9688,9.96879997 z m 0,-16.812 c 2.7656,0 5.2617,1.6641 6.3203,4.2227 1.0625,2.55860003 0.47656,5.5 -1.4805,7.457 -1.95706,1.957 -4.9023,2.543 -7.4609,1.4844 -2.5547,-1.0586 -4.2227,-3.5547 -4.2227,-6.32029997 0.0039,-3.78120003 3.0664,-6.83980003 6.8438,-6.84380003 z"
     id="path4" />
</svg>
