<?xml version="1.0" encoding="UTF-8" standalone="no"?>
<svg
   version="1.1"
   viewBox="-5 -10 100.0016 76.922997"
   id="svg5"
   sodipodi:docname="Cycling Icon.svg"
   inkscape:version="1.3-beta (cedbd6c, 2023-05-28)"
   width="100.0016"
   height="76.922997"
   xmlns:inkscape="http://www.inkscape.org/namespaces/inkscape"
   xmlns:sodipodi="http://sodipodi.sourceforge.net/DTD/sodipodi-0.dtd"
   xmlns="http://www.w3.org/2000/svg"
   xmlns:svg="http://www.w3.org/2000/svg">
  <defs
     id="defs5" />
  <sodipodi:namedview
     id="namedview5"
     pagecolor="#ffffff"
     bordercolor="#000000"
     borderopacity="0.25"
     inkscape:showpageshadow="2"
     inkscape:pageopacity="0.0"
     inkscape:pagecheckerboard="0"
     inkscape:deskcolor="#d1d1d1"
     inkscape:zoom="1.7481481"
     inkscape:cx="-115.83686"
     inkscape:cy="51.197034"
     inkscape:window-width="1920"
     inkscape:window-height="1172"
     inkscape:window-x="0"
     inkscape:window-y="43"
     inkscape:window-maximized="1"
     inkscape:current-layer="svg5" />
  <path
     d="m 75.7708,28.4614 c -5.1016,0 -9.9922,2.0273 -13.598,5.6328 -3.6055,3.6055 -5.6328,8.4961 -5.6328,13.598 0,5.1016 2.0273,9.9922 5.6328,13.598 3.6055,3.6058 8.4961,5.6328 13.598,5.6328 5.1016,0 9.9922,-2.0273 13.598,-5.6328 3.6055,-3.6055 5.6328,-8.4961 5.6328,-13.598 -0.0078,-5.0977 -2.0352,-9.9844 -5.6406,-13.59 -3.6054,-3.6056 -8.4922,-5.6328 -13.59,-5.6406 z m 0,30.77 c -4.668,0 -8.875,-2.8125 -10.66,-7.125 -1.7852,-4.3086 -0.80078,-9.2734 2.5,-12.574 3.3008,-3.2969 8.2656,-4.2852 12.574,-2.5 4.3125,1.7852 7.125,5.9922 7.125,10.66 0,6.3711 -5.168,11.539 -11.539,11.539 z"
     id="path1"
     style="fill:#36adef;fill-opacity:1" />
  <path
     d="m 14.2308,28.4614 c -5.1016,0 -9.9922,2.0273 -13.598,5.6328 C -2.9727,37.6997 -5,42.5903 -5,47.6922 c 0,5.1016 2.0273,9.9922 5.6328,13.598 3.6055,3.6055 8.4961,5.6328 13.598,5.6328 5.1016,0 9.9922,-2.0273 13.598,-5.6328 3.6058,-3.6055 5.6328,-8.4961 5.6328,-13.598 -0.0039,-5.0977 -2.0352,-9.9844 -5.6406,-13.59 -3.6016,-3.6055 -8.4922,-5.6328 -13.59,-5.6406 z m 0,30.77 c -4.668,0 -8.875,-2.8125 -10.66,-7.125 -1.7852,-4.3086 -0.79687,-9.2734 2.5,-12.574 3.3008,-3.2969 8.2656,-4.2852 12.574,-2.5 4.3125,1.7852 7.125,5.9922 7.125,10.66 0,6.3711 -5.168,11.539 -11.539,11.539 z"
     id="path2"
     style="fill:#36adef;fill-opacity:1" />
  <path
     d="m 64.2308,-2.3086 c 0,4.25 -3.4453,7.6914 -7.6914,7.6914 -4.25,0 -7.6914,-3.4414 -7.6914,-7.6914 0,-4.2461 3.4414,-7.6914 7.6914,-7.6914 4.2461,0 7.6914,3.4453 7.6914,7.6914"
     id="path3"
     style="fill:#36adef;fill-opacity:1" />
  <path
     d="m 34.3328,18.4924 c 1.9336,-3.8242 5.0312,-6.9375 8.8438,-8.8945 6.2812,7.1719 15.371,11.25 24.902,11.172 2.1211,0 3.8438,-1.7227 3.8438,-3.8477 0,-2.125 -1.7227,-3.8438 -3.8438,-3.8438 -7.2109,0 -16.824,-3.7812 -19.633,-9.4102 L 48.4417,3.6643 C 47.70732,2.301 46.2503,1.4846 44.7034,1.5627 c -9.8203,0.26172 -18.934,13.262 -18.934,19.207 0,1.6523 1.0586,3.1211 2.6289,3.6445 6.1602,1.8633 11.281,6.1719 14.164,11.922 1.707,4.4102 1.3359,9.3555 -1.0039,13.465 -0.45703,0.91016 -0.53125,1.9688 -0.20703,2.9375 0.32031,0.96484 1.0156,1.7656 1.9297,2.2227 1.9023,0.94922 4.2109,0.17969 5.1602,-1.7227 3.3438,-6.1055 3.7891,-13.383 1.2227,-19.852 -3.0703,-6.707 -8.5391,-12.02 -15.332,-14.895 z"
     id="path4"
     style="fill:#36adef;fill-opacity:1" />
</svg>
