<?xml version="1.0" encoding="UTF-8" standalone="no"?>
<svg
   version="1.1"
   x="0px"
   y="0px"
   viewBox="0 0 86.789001 79.584999"
   xml:space="preserve"
   id="svg2"
   sodipodi:docname="Signup Icon 5294592.svg"
   width="86.789001"
   height="79.584999"
   inkscape:version="1.3-beta (cedbd6c, 2023-05-28)"
   xmlns:inkscape="http://www.inkscape.org/namespaces/inkscape"
   xmlns:sodipodi="http://sodipodi.sourceforge.net/DTD/sodipodi-0.dtd"
   xmlns="http://www.w3.org/2000/svg"
   xmlns:svg="http://www.w3.org/2000/svg"><defs
     id="defs2" /><sodipodi:namedview
     id="namedview2"
     pagecolor="#ffffff"
     bordercolor="#000000"
     borderopacity="0.25"
     inkscape:showpageshadow="2"
     inkscape:pageopacity="0.0"
     inkscape:pagecheckerboard="0"
     inkscape:deskcolor="#d1d1d1"
     inkscape:zoom="1.9265306"
     inkscape:cx="-0.2595339"
     inkscape:cy="96.287076"
     inkscape:window-width="1920"
     inkscape:window-height="1172"
     inkscape:window-x="0"
     inkscape:window-y="43"
     inkscape:window-maximized="0"
     inkscape:current-layer="svg2" /><path
     d="M 71.065,0 H 15.723 C 7.054,0 0,7.053 0,15.723 c 0,8.67 7.053,15.722 15.723,15.722 h 17.344 l 0.178,16.746 -5.139,-3.522 c -4.127,-2.827 -6.31,-0.975 -7.057,-0.047 -1.694,2.103 -1.604,6.403 0.169,8.072 1.027,0.967 2.048,1.872 3.034,2.748 3.374,2.995 6.288,5.581 7.538,8.871 3.879,10.208 9.9,15.054 18.951,15.25 0.635,0.014 1.243,0.022 1.829,0.022 4.963,0 8.201,-0.562 10.491,-2.811 3.356,-3.296 3.947,-9.78 3.903,-21.362 v -9.357 c 0,-2.918 -2.374,-5.293 -5.293,-5.293 -0.925,0 -1.794,0.24 -2.551,0.658 -0.363,-2.568 -2.569,-4.551 -5.235,-4.551 -0.927,0 -1.799,0.241 -2.558,0.662 -0.38,-2.548 -2.576,-4.512 -5.229,-4.512 -0.901,0 -1.75,0.228 -2.493,0.627 v -2.201 h 27.461 c 8.669,0 15.723,-7.053 15.723,-15.723 C 86.789,7.052 79.735,0 71.065,0 Z M 46.098,35.819 c 1.374,0 2.493,1.119 2.493,2.493 v 3.849 4.744 2.387 c 0,0.773 0.627,1.4 1.4,1.4 0.773,0 1.4,-0.627 1.4,-1.4 v -2.387 -4.744 c 0,-1.374 1.119,-2.493 2.494,-2.493 1.375,0 2.493,1.119 2.493,2.493 v 10.455 c 0,0.773 0.627,1.4 1.4,1.4 0.773,0 1.4,-0.627 1.4,-1.4 v -6.562 c 0,-1.375 1.119,-2.493 2.493,-2.493 1.374,0 2.493,1.119 2.493,2.493 v 9.362 c 0,0.001 0,0.002 0,0.003 0,0.001 0,0.002 0,0.003 0.04,10.312 -0.449,16.784 -3.065,19.353 -1.852,1.819 -5.049,2.102 -10.297,1.988 -7.87,-0.171 -12.926,-4.318 -16.394,-13.446 -1.494,-3.932 -4.798,-6.865 -8.297,-9.97 -0.971,-0.862 -1.976,-1.754 -2.974,-2.693 -0.553,-0.521 -0.839,-3.12 0.093,-4.278 0.712,-0.882 2.184,-0.16 3.294,0.601 l 7.359,5.043 c 0.431,0.296 0.99,0.326 1.451,0.08 0.461,-0.246 0.746,-0.728 0.74,-1.25 L 35.819,26.922 c -0.007,-0.646 0.246,-1.261 0.71,-1.73 0.478,-0.483 1.111,-0.749 1.783,-0.749 1.375,0 2.493,1.119 2.493,2.493 v 20.429 c 0,0.773 0.627,1.4 1.4,1.4 0.773,0 1.4,-0.627 1.4,-1.4 v -9.053 c -10e-4,-1.375 1.118,-2.493 2.493,-2.493 z M 71.065,28.645 H 43.604 v -1.707 c 0,-2.918 -2.374,-5.293 -5.293,-5.293 -1.425,0 -2.765,0.561 -3.773,1.579 -0.995,1.005 -1.534,2.329 -1.52,3.729 l 0.018,1.692 H 15.723 C 8.597,28.645 2.8,22.848 2.8,15.722 2.8,8.597 8.597,2.799 15.723,2.799 h 55.343 c 7.126,0 12.923,5.797 12.923,12.923 0,7.126 -5.798,12.923 -12.924,12.923 z"
     id="path1"
     style="fill:#36adef;fill-opacity:1" /></svg>
