<svg xmlns="http://www.w3.org/2000/svg" viewBox="0 0 72 90" x="0px" y="0px"><title>glyph</title><g data-name="Layer 25"><path d="M42,33a3.00879,3.00879,0,0,0-3,3H9a3,3,0,0,0-6,0V68a1.003,1.003,0,0,0,1,1H8a1.003,1.003,0,0,0,1-1V54H39V68a1.003,1.003,0,0,0,1,1h4a1.003,1.003,0,0,0,1-1V36A3.00879,3.00879,0,0,0,42,33ZM31,44H25V38h6ZM15,38v6H9V38ZM7,67H5V36a1,1,0,0,1,2,0V67ZM17,46h6v6H17Zm16,6V46h6v6ZM43,67H41V36a1,1,0,0,1,2,0Z"/><path d="M61,13.5a.49511.49511,0,0,1,.5-.5H64V23a1,1,0,0,0,2,0V4a1.003,1.003,0,0,0-1-1H61.5A2.50091,2.50091,0,0,0,59,5.5a.49511.49511,0,0,1-.5.5H53a.97715.97715,0,0,0-.89.55A.99627.99627,0,0,0,52.2,7.6L54.75,11,52.2,14.4a.99627.99627,0,0,0-.09,1.05A.97715.97715,0,0,0,53,16h5.5A2.50091,2.50091,0,0,0,61,13.5Z"/><path d="M50,63H48a1,1,0,0,0,0,2h2a1,1,0,0,0,0-2Z"/><path d="M56,63H54a1,1,0,0,0,0,2h2a1,1,0,0,0,0-2Z"/><path d="M61.09375,61.67822a6.99018,6.99018,0,0,1-1.53027.83789.99985.99985,0,1,0,.7334,1.86035,8.9914,8.9914,0,0,0,1.96875-1.07714,1.00016,1.00016,0,0,0-1.17188-1.6211Z"/><path d="M65,32.5708a1,1,0,0,0-1,1v2a1,1,0,0,0,2,0v-2A1,1,0,0,0,65,32.5708Z"/><path d="M65,28a1,1,0,0,0-1,1v.5708a1,1,0,0,0,2,0V29A1,1,0,0,0,65,28Z"/><path d="M65,38.5708a1,1,0,0,0-1,1v2a1,1,0,0,0,2,0v-2A1,1,0,0,0,65,38.5708Z"/><path d="M65.041,56.57959a.99706.99706,0,0,0-1.17432.7876,6.94,6.94,0,0,1-.54981,1.65332,1,1,0,0,0,1.80372.86426,8.921,8.921,0,0,0,.708-2.13086A.99926.99926,0,0,0,65.041,56.57959Z"/><path d="M65,50.5708a1,1,0,0,0-1,1v2a1,1,0,0,0,2,0v-2A1,1,0,0,0,65,50.5708Z"/><path d="M65,44.5708a1,1,0,0,0-1,1v2a1,1,0,0,0,2,0v-2A1,1,0,0,0,65,44.5708Z"/><path d="M68,22a1,1,0,0,0-1,1,2,2,0,0,1-4,0,1,1,0,0,0-2,0,4,4,0,0,0,8,0A1,1,0,0,0,68,22Z"/></g><text x="0" y="87" fill="#000000" font-size="5px" font-weight="bold" font-family="'Helvetica Neue', Helvetica, Arial-Unicode, Arial, Sans-serif">Created by Reion</text><text x="0" y="92" fill="#000000" font-size="5px" font-weight="bold" font-family="'Helvetica Neue', Helvetica, Arial-Unicode, Arial, Sans-serif">from the Noun Project</text></svg>