<?xml version="1.0" encoding="UTF-8" standalone="no"?>
<svg
   data-name="Layer 1"
   viewBox="0 0 128 128.00031"
   x="0px"
   y="0px"
   version="1.1"
   id="svg30"
   sodipodi:docname="Start Icon 5140093.svg"
   width="128"
   height="128.00031"
   inkscape:version="1.3-beta (cedbd6c, 2023-05-28)"
   xmlns:inkscape="http://www.inkscape.org/namespaces/inkscape"
   xmlns:sodipodi="http://sodipodi.sourceforge.net/DTD/sodipodi-0.dtd"
   xmlns="http://www.w3.org/2000/svg"
   xmlns:svg="http://www.w3.org/2000/svg"
   xmlns:rdf="http://www.w3.org/1999/02/22-rdf-syntax-ns#"
   xmlns:cc="http://creativecommons.org/ns#"
   xmlns:dc="http://purl.org/dc/elements/1.1/">
  <defs
     id="defs30" />
  <sodipodi:namedview
     id="namedview30"
     pagecolor="#ffffff"
     bordercolor="#000000"
     borderopacity="0.25"
     inkscape:showpageshadow="2"
     inkscape:pageopacity="0.0"
     inkscape:pagecheckerboard="0"
     inkscape:deskcolor="#d1d1d1"
     inkscape:zoom="1.475"
     inkscape:cx="-105.42373"
     inkscape:cy="102.71186"
     inkscape:window-width="1920"
     inkscape:window-height="1172"
     inkscape:window-x="0"
     inkscape:window-y="43"
     inkscape:window-maximized="0"
     inkscape:current-layer="svg30" />
  <title
     id="title1">94 Web Icon Set 46 expanded</title>
  <path
     d="m 89.88281,39.896788 c 0,4.56152 8.09473,6.60352 16.11719,6.60352 8.02246,0 16.11719,-2.042 16.11719,-6.60352 0,-3.40045 -4.502,-5.39911 -10.11719,-6.19666 v 2.30018 a 5.99211,5.99211 0 0 1 -0.25006,1.70746 c 3.6535,0.56635 5.75641,1.58221 6.2901,2.189 -0.76855,0.876 -4.79492,2.60352 -12.04,2.60352 -7.24508,0 -11.27148,-1.72754 -12.04,-2.60352 0.53369,-0.60681 2.6366,-1.62268 6.2901,-2.189 A 5.99211,5.99211 0 0 1 100,36.000308 v -2.30017 c -5.61517,0.79755 -10.11719,2.79617 -10.11719,6.19665 z"
     id="path1" />
  <path
     d="m 9.41516,115.67261 c -4.35022,0.99683 -7.53235,2.86523 -7.53235,5.72418 0,4.56152 8.09473,6.60352 16.11719,6.60352 8.02246,0 16.11719,-2.042 16.11719,-6.60352 0,-2.88794 -3.24982,-4.763 -7.668,-5.75208 -0.87872,1.41937 -1.6637,2.65179 -2.29749,3.63019 3.403,0.57648 5.37476,1.538 5.88831,2.12189 -0.76853,0.87598 -4.79489,2.60352 -12.04001,2.60352 -7.24512,0 -11.27148,-1.72754 -12.04,-2.60352 0.51093,-0.58093 2.46576,-1.53528 5.83624,-2.11273 -0.66337,-0.97857 -1.47495,-2.20001 -2.38108,-3.61145 z"
     id="path2" />
  <path
     d="m 18,119.71418 h 0.02441 a 2.003,2.003 0 0 0 1.64063,-0.8916 C 21.33691,116.31183 36,94.008118 36,84.227848 c 0,-9.70996 -8.41113,-18.22754 -18,-18.22754 -9.58887,0 -18,8.51758 -18,18.22754 0,11.2041 15.69531,33.684572 16.36328,34.635742 A 2.001,2.001 0 0 0 18,119.71418 Z m 0,-49.713872 c 7.458,0 14,6.64844 14,14.22754 0,6.47754 -9.00488,21.966802 -14.04,29.877002 C 12.9248,106.52668 4,91.572578 4,84.227848 c 0,-7.5791 6.542,-14.22754 14,-14.22754 z"
     id="path3"
     style="fill:#36adef;fill-opacity:1" />
  <path
     d="M 27.27246,83.536438 A 9.10462,9.10462 0 0 0 18,74.631168 a 8.91207,8.91207 0 1 0 0,17.80957 9.10381,9.10381 0 0 0 9.27246,-8.9043 z m -14.54492,0 A 5.10442,5.10442 0 0 1 18,78.631168 a 4.91761,4.91761 0 1 1 0,9.80957 5.10428,5.10428 0 0 1 -5.27246,-4.9043 z"
     id="path4" />
  <path
     d="m 120.8252,114.63117 a 1.99917,1.99917 0 0 0 2.80664,-0.34766 20.97041,20.97041 0 0 0 1.82422,-2.76758 2.0003021,2.0003021 0 0 0 -3.50391,-1.93066 16.98057,16.98057 0 0 1 -1.47461,2.23926 1.99929,1.99929 0 0 0 0.34766,2.80664 z"
     id="path5"
     style="fill:#f08e00;fill-opacity:1" />
  <path
     d="m 45,119.00031 a 2.0001,2.0001 0 0 0 2,2 h 3 a 2,2 0 0 0 0,-4 h -3 a 2.0001,2.0001 0 0 0 -2,2 z"
     id="path6"
     style="fill:#f08e00;fill-opacity:1" />
  <path
     d="m 89,119.00031 a 2.0001,2.0001 0 0 0 2,2 h 3 a 2,2 0 0 0 0,-4 h -3 a 2.0001,2.0001 0 0 0 -2,2 z"
     id="path7"
     style="fill:#f08e00;fill-opacity:1" />
  <path
     d="m 92.88184,79.000308 a 2,2 0 0 0 0,4 h 3 a 2,2 0 0 0 0,-4 z"
     id="path8"
     style="fill:#f08e00;fill-opacity:1" />
  <path
     d="m 121.86719,93.089178 a 2.00015,2.00015 0 0 0 3.65625,-1.623 31.55,31.55 0 0 0 -1.44922,-2.8623 1.99994,1.99994 0 0 0 -3.4707,1.98828 27.41742,27.41742 0 0 1 1.26367,2.49702 z"
     id="path9"
     style="fill:#f08e00;fill-opacity:1" />
  <path
     d="m 115.06641,116.14094 a 10.58455,10.58455 0 0 1 -2.41113,0.71875 1.9999301,1.9999301 0 1 0 0.66992,3.94336 14.62658,14.62658 0 0 0 3.32324,-0.98828 2,2 0 0 0 -1.582,-3.67383 z"
     id="path10"
     style="fill:#f08e00;fill-opacity:1" />
  <path
     d="m 125.97266,104.94562 a 2.00018,2.00018 0 0 0 1.99414,-1.876 q 0.0337,-0.53611 0.0332,-1.06931 a 19.71815,19.71815 0 0 0 -0.1377,-2.281252 1.99977,1.99977 0 0 0 -3.97266,0.462892 15.85307,15.85307 0 0 1 0.11036,1.81836 c 0,0.27344 -0.009,0.54785 -0.0254,0.82129 a 2.00045,2.00045 0 0 0 1.87207,2.12012 c 0.043,0.003 0.084,0.004 0.12598,0.004 z"
     id="path11"
     style="fill:#f08e00;fill-opacity:1" />
  <path
     d="m 108.88184,81.000308 a 2.0001,2.0001 0 0 0 -2,-2 h -3 a 2,2 0 0 0 0,4 h 3 a 2.0001,2.0001 0 0 0 2,-2 z"
     id="path12"
     style="fill:#f08e00;fill-opacity:1" />
  <path
     d="m 118.52832,81.891908 a 14.62553,14.62553 0 0 0 -2.9375,-1.8418 2.0001847,2.0001847 0 1 0 -1.68555,3.62793 10.63488,10.63488 0 0 1 2.12891,1.34082 1.999929,1.999929 0 1 0 2.49414,-3.127 z"
     id="path13"
     style="fill:#f08e00;fill-opacity:1" />
  <path
     d="m 105,117.00031 h -3 a 2,2 0 0 0 0,4 h 3 a 2,2 0 0 0 0,-4 z"
     id="path14"
     style="fill:#f08e00;fill-opacity:1" />
  <path
     d="m 78,119.00031 a 2.0001,2.0001 0 0 0 2,2 h 3 a 2,2 0 0 0 0,-4 h -3 a 2.0001,2.0001 0 0 0 -2,2 z"
     id="path15"
     style="fill:#f08e00;fill-opacity:1" />
  <path
     d="M 81.88184,83.000308 H 85 a 2,2 0 0 0 0,-4 h -3.11816 a 2,2 0 0 0 0,4 z"
     id="path16"
     style="fill:#f08e00;fill-opacity:1" />
  <path
     d="m 67,119.00031 a 2.0001,2.0001 0 0 0 2,2 h 3 a 2,2 0 0 0 0,-4 h -3 a 2.0001,2.0001 0 0 0 -2,2 z"
     id="path17"
     style="fill:#f08e00;fill-opacity:1" />
  <path
     d="m 56,119.00031 a 2.0001,2.0001 0 0 0 2,2 h 3 a 2,2 0 0 0 0,-4 h -3 a 2.0001,2.0001 0 0 0 -2,2 z"
     id="path18"
     style="fill:#f08e00;fill-opacity:1" />
  <path
     d="m 55.02832,40.000308 h -3 a 2,2 0 0 0 0,4 h 3 a 2,2 0 0 0 0,-4 z"
     id="path19"
     style="fill:#f08e00;fill-opacity:1" />
  <path
     d="m 77.02832,40.000308 h -3 a 2,2 0 0 0 0,4 h 3 a 2,2 0 0 0 0,-4 z"
     id="path20"
     style="fill:#f08e00;fill-opacity:1" />
  <path
     d="m 69,81.000308 a 2.0001,2.0001 0 0 0 2,2 h 3 a 2,2 0 0 0 0,-4 h -3 a 2.0001,2.0001 0 0 0 -2,2 z"
     id="path21"
     style="fill:#f08e00;fill-opacity:1" />
  <path
     d="m 43.40918,42.837218 a 18.49032,18.49032 0 0 0 -2.55859,2.18164 1.9998901,1.9998901 0 1 0 2.85741,2.79883 14.39615,14.39615 0 0 1 2.002,-1.707 2.0005623,2.0005623 0 0 0 -2.30078,-3.27344 z"
     id="path22"
     style="fill:#f08e00;fill-opacity:1" />
  <path
     d="m 47.127,79.916308 a 2.0001,2.0001 0 0 0 1.4082,2.45313 22.39114,22.39114 0 0 0 3.23242,0.61719 1.91311,1.91311 0 0 0 0.23531,0.01368 1.99995,1.99995 0 0 0 0.22949,-3.98633 18.36486,18.36486 0 0 1 -2.65234,-0.50586 1.99846,1.99846 0 0 0 -2.45308,1.40819 z"
     id="path23"
     style="fill:#f08e00;fill-opacity:1" />
  <path
     d="m 38.748,51.272768 a 2.0006,2.0006 0 0 0 -2.5625,1.19727 20.24362,20.24362 0 0 0 -0.876,3.21 2.001,2.001 0 0 0 1.60352,2.33008 2.03226,2.03226 0 0 0 0.36523,0.0332 1.99965,1.99965 0 0 0 1.96484,-1.63672 16.23467,16.23467 0 0 1 0.70215,-2.57129 2.00018,2.00018 0 0 0 -1.19724,-2.56254 z"
     id="path24"
     style="fill:#f08e00;fill-opacity:1" />
  <path
     d="m 38.9873,72.754218 a 1.99915,1.99915 0 0 0 -0.4668,2.78906 17.368,17.368 0 0 0 2.22461,2.55078 2,2 0 1 0 2.74219,-2.91211 13.3731,13.3731 0 0 1 -1.71094,-1.96094 1.998,1.998 0 0 0 -2.78906,-0.46679 z"
     id="path25"
     style="fill:#f08e00;fill-opacity:1" />
  <path
     d="m 66.02832,40.000308 h -3 a 2,2 0 0 0 0,4 h 3 a 2,2 0 0 0 0,-4 z"
     id="path26"
     style="fill:#f08e00;fill-opacity:1" />
  <path
     d="m 58,81.000308 a 2.0001,2.0001 0 0 0 2,2 h 3 a 2,2 0 0 0 0,-4 h -3 a 2.0001,2.0001 0 0 0 -2,2 z"
     id="path27"
     style="fill:#f08e00;fill-opacity:1" />
  <path
     d="m 35.25,67.317688 a 1.99931,1.99931 0 0 0 1.97363,1.69629 2.03611,2.03611 0 0 0 0.30664,-0.02344 1.9995,1.9995 0 0 0 1.67286,-2.28023 A 17.89338,17.89338 0 0 1 39,64.024718 a 2.00031,2.00031 0 0 0 -2,-1.998 h -0.002 a 2.0001,2.0001 0 0 0 -1.998,2.00191 21.79667,21.79667 0 0 0 0.25,3.28906 z"
     id="path28"
     style="fill:#f08e00;fill-opacity:1" />
  <path
     d="m 126.74316,8.1428881 -20,-8 A 2.00065,2.00065 0 0 0 104,2.0003081 V 36.000308 a 2,2 0 0 0 4,0 v -16.64532 l 18.74316,-7.49725 a 2.00092,2.00092 0 0 0 0,-3.7148399 z M 108,15.046208 V 4.9544081 l 12.61523,5.0458999 z"
     id="path29"
     style="fill:#36adef;fill-opacity:1" />
  <metadata
     id="metadata30">
    <rdf:RDF>
      <cc:Work
         rdf:about="">
        <dc:title>94 Web Icon Set 46 expanded</dc:title>
      </cc:Work>
    </rdf:RDF>
  </metadata>
</svg>
