<?xml version="1.0" encoding="UTF-8" standalone="no"?>
<!-- Created with Inkscape (http://www.inkscape.org/) -->

<svg
   version="1.1"
   id="svg2"
   width="866.66669"
   height="266.66666"
   viewBox="0 0 866.66669 266.66666"
   sodipodi:docname="ARMADA_mobility logo.eps"
   xmlns:inkscape="http://www.inkscape.org/namespaces/inkscape"
   xmlns:sodipodi="http://sodipodi.sourceforge.net/DTD/sodipodi-0.dtd"
   xmlns="http://www.w3.org/2000/svg"
   xmlns:svg="http://www.w3.org/2000/svg">
  <defs
     id="defs6" />
  <sodipodi:namedview
     id="namedview4"
     pagecolor="#ffffff"
     bordercolor="#000000"
     borderopacity="0.25"
     inkscape:showpageshadow="2"
     inkscape:pageopacity="0.0"
     inkscape:pagecheckerboard="0"
     inkscape:deskcolor="#d1d1d1" />
  <g
     id="g8"
     inkscape:groupmode="layer"
     inkscape:label="ink_ext_XXXXXX"
     transform="matrix(1.3333333,0,0,-1.3333333,0,266.66667)">
    <g
       id="g10"
       transform="scale(0.1)">
      <path
         d="m 4774.8,176.129 c -3.2,-2.07 -6.4,-3.789 -9.72,-5.391 -3.44,-1.597 -7.03,-2.968 -10.74,-4.058 -3.79,-1.129 -8.48,-2.34 -13.79,-3.711 -3.56,9.492 -5.9,16.992 -7,22.929 -1.13,5.782 -1.75,11.801 -1.75,18.082 0,8.872 1.36,22.192 4.1,39.571 l 23.4,144.379 c 0.97,4.922 1.6,9.019 2.07,12.461 0.39,3.32 0.62,5.429 0.62,6.289 v 5.429 c 0,13.442 -3.79,20.082 -11.33,20.082 -5.43,0 -11.83,-2.742 -19.21,-8.402 -7.39,-5.551 -16.88,-14.769 -28.48,-27.848 -11.68,-12.07 -20.94,-22.152 -27.85,-30.16 -7,-8.011 -12.07,-13.941 -15.12,-17.5 -6.29,-7.152 -13.71,-17.621 -22.19,-31.562 -10.23,-16.489 -18.36,-32.028 -24.14,-46.559 -5.78,-14.648 -9.88,-30.551 -12.07,-48.051 l -7.42,-53.711 h -44.96 l 34.26,220.153 2.69,18.129 c 0.86,4.57 1.25,7.621 1.25,9.492 0,10.707 -3.59,16.019 -10.7,16.019 -5.31,0 -11.72,-2.742 -19.14,-8.402 -7.38,-5.551 -17.11,-14.769 -29.18,-27.848 -10.74,-11.211 -19.34,-20.429 -25.86,-27.82 -6.56,-7.422 -12.07,-13.941 -16.76,-19.492 -4.69,-5.539 -8.63,-10.82 -11.72,-15.738 -3.2,-4.922 -6.79,-10.352 -10.82,-16.172 -10.23,-16.489 -18.01,-32.028 -23.44,-46.559 -5.42,-14.648 -9.33,-30.551 -12.07,-48.051 l -8.12,-53.711 h -44.96 l 42.26,266.481 h -56.44 v 12.82 l 91.41,31.563 h 16.75 L 4445.86,331.52 c 14.3,21.921 28.94,42 43.98,60.359 14.89,18.351 29.42,34.019 43.6,46.711 14.06,12.82 27.38,22.781 39.92,29.93 12.58,7.14 23.79,10.742 33.52,10.742 9.49,0 16.87,-3.602 22.18,-10.742 5.43,-7.149 8.13,-17.231 8.13,-30.321 0,-4.41 -0.47,-10.929 -1.33,-19.679 -1.02,-8.75 -2.23,-17.391 -4.1,-25.899 l -11.45,-61.723 c 13.91,21.911 28.21,41.872 43.01,60 14.77,18.122 29.18,33.75 43.36,46.723 14.06,12.93 27.46,23.117 40.31,30.539 12.66,7.391 23.99,11.102 33.87,11.102 9.84,0 17.38,-3.481 22.42,-10.473 5.16,-6.91 7.77,-16.91 7.77,-29.84 0,-4.07 -0.5,-10.078 -1.36,-18.09 -0.86,-8.16 -2.23,-17.269 -4.07,-27.621 l -29.45,-181.25 c 6.64,5.434 12.19,10.121 16.37,14.184 4.34,3.949 8.28,7.887 12.11,11.719 3.79,3.828 7.5,7.847 11.09,12.418 3.56,4.461 7.85,10.121 12.78,16.8 2.22,3.051 4.57,6.371 7.03,9.692 2.46,3.359 5.31,7.027 8.4,11.09 l 19.45,-13.442 c -10.35,-13.898 -18.95,-25.578 -26.25,-35.187 -7.15,-9.614 -13.56,-17.891 -19.45,-24.532 -5.79,-6.8 -11.22,-12.582 -16.41,-17.5 -5.16,-4.929 -10.59,-9.609 -16.49,-14.07 -3.59,-2.691 -6.91,-5.039 -10,-7.031"
         style="fill:#7b7c7e;fill-opacity:1;fill-rule:nonzero;stroke:none"
         id="path12" />
      <path
         d="m 5008.05,439.961 c -9.85,-6.91 -18.87,-16.289 -27,-27.852 -8.12,-11.718 -15,-25.39 -20.93,-41.289 -5.78,-15.898 -9.61,-32.539 -11.45,-50.039 -0.51,-4.062 -0.74,-7.972 -0.97,-11.679 -0.28,-3.832 -0.4,-7.5 -0.4,-11.09 0,-15.282 1.49,-29.34 4.42,-42.391 2.97,-12.922 7.03,-24.293 12.46,-33.902 5.43,-9.571 11.84,-17.11 19.22,-22.418 7.38,-5.391 15.39,-8.09 23.9,-8.09 11.72,0 23.05,4.301 34.15,12.769 10.93,8.52 20.7,19.969 28.94,34.5 8.36,14.571 15.04,31.168 20.2,49.801 5.19,18.481 7.77,37.809 7.77,58.008 0,14.301 -1.6,27.852 -4.69,40.66 -3.2,12.699 -7.38,23.789 -12.81,33.172 -5.43,9.449 -11.72,16.867 -18.87,22.149 -7.26,5.429 -15.11,8.16 -23.63,8.16 -10.35,0 -20.47,-3.59 -30.31,-10.469 m 43.36,40.629 c 14.29,0 27.5,-3.32 39.57,-9.731 12.07,-6.519 22.54,-15.66 31.29,-27.23 8.75,-11.559 15.5,-25.391 20.46,-41.25 4.93,-15.93 7.39,-33.508 7.39,-52.731 0,-24.179 -5.55,-48.668 -16.53,-73.437 -10.97,-24.922 -26.48,-48.051 -46.56,-69.492 -29.57,-30.938 -61.37,-46.328 -95.39,-46.328 -14.26,0 -27.46,3.05 -39.3,9.339 -11.79,6.29 -22.03,14.918 -30.54,25.891 -8.52,10.981 -15.16,23.91 -20.08,38.949 -4.92,14.879 -7.38,31.41 -7.38,49.258 0,27.344 5.15,53.981 15.78,79.961 10.47,25.902 25.86,49.41 45.93,70.473 29.93,30.816 61.72,46.328 95.36,46.328"
         style="fill:#7b7c7e;fill-opacity:1;fill-rule:nonzero;stroke:none"
         id="path14" />
      <path
         d="m 5247.46,214.73 c 7.15,-6.289 12.93,-11.101 17.34,-14.421 4.58,-3.321 8.64,-6.047 12.47,-8.161 3.78,-1.949 7.5,-3.168 11.09,-3.668 3.55,-0.359 7.89,-0.628 12.81,-0.628 12.93,0 25.63,5.039 37.81,15.16 12.35,10 23.17,23.277 32.66,39.918 9.38,16.519 16.88,35.59 22.42,57.031 5.67,21.449 8.4,43.629 8.4,66.41 0,20.231 -1.87,35.738 -5.7,46.719 -3.79,10.969 -9.49,16.48 -17.11,16.48 -4.45,0 -10.24,-2.3 -17.11,-6.761 -6.92,-4.411 -14.45,-10.469 -22.42,-18.118 -8.17,-7.621 -16.41,-16.492 -24.92,-26.839 -8.48,-10.352 -16.76,-21.09 -24.89,-32.153 -10.19,-15.308 -18.47,-30.429 -24.76,-45.347 -6.29,-15.043 -10.59,-31.051 -12.82,-48.051 z m -21.56,-46.332 h -31.56 l 71.83,450.43 h -56.33 v 12.113 l 91.96,32.258 h 16.72 l -47.66,-301.48 c 11.72,17.5 23.91,33.48 36.6,48.051 12.77,14.531 25.35,27.109 37.7,37.57 12.18,10.469 23.9,18.711 34.88,24.5 10.94,5.781 20.94,8.75 29.8,8.75 6.76,0 12.93,-2.578 18.48,-7.738 5.66,-5.192 10.59,-12.461 14.77,-21.832 4.33,-9.34 7.5,-20.43 9.72,-33.25 2.23,-12.692 3.32,-26.75 3.32,-41.911 0,-28.199 -4.29,-55.429 -13.04,-81.558 -8.75,-26.25 -20.2,-49.262 -34.61,-69.223 -14.3,-19.848 -30.82,-35.738 -49.65,-47.578 -18.71,-11.949 -38.44,-17.852 -59.03,-17.852 -8.98,0 -18.75,1.602 -29.21,4.692 -10.59,3.199 -21.18,7.609 -31.88,13.43 z"
         style="fill:#7b7c7e;fill-opacity:1;fill-rule:nonzero;stroke:none"
         id="path16" />
      <path
         d="m 5625.7,568.199 c -6.91,-8.75 -14.92,-13.078 -23.79,-13.078 -5.93,0 -10.7,3.859 -14.53,11.719 -3.83,7.769 -5.66,17.14 -5.66,27.851 0,2.688 0.23,4.688 0.74,6.047 1.21,12.934 5.39,23.75 12.31,32.274 7.03,8.508 14.88,12.687 23.9,12.687 5.78,0 10.59,-3.82 14.42,-11.32 3.82,-7.66 5.66,-16.879 5.66,-27.617 v -6.024 c -1.72,-12.968 -6.17,-23.789 -13.05,-32.539 m 33.25,-293.121 c -9.85,-13.789 -18.36,-25.629 -25.51,-35.238 -7.27,-9.61 -13.67,-17.852 -19.46,-24.762 -5.89,-6.988 -11.44,-12.93 -16.87,-17.848 -5.31,-4.929 -10.98,-9.609 -16.76,-14.031 -6.64,-5.429 -12.93,-9.371 -18.71,-12.109 -5.94,-2.692 -14.45,-5.391 -25.51,-8.121 -3.71,9.492 -6.05,16.992 -7.15,22.89 -1.13,5.821 -1.6,11.871 -1.6,18.121 0,3.95 0.24,9.5 0.98,16.411 0.62,7.031 1.72,14.879 2.97,23.91 l 29.57,190.578 h -56.45 v 12.82 l 92.66,31.563 h 17.5 l -42.27,-267.274 c 6.29,5.434 11.57,10.121 16.14,14.184 4.45,3.949 8.51,7.887 12.07,11.719 3.59,3.828 7.15,7.847 10.74,12.418 3.55,4.461 7.73,10.121 12.66,16.761 2.22,3.09 4.68,6.41 7.18,9.77 2.31,3.32 5.16,6.988 8.36,11.051 z"
         style="fill:#7b7c7e;fill-opacity:1;fill-rule:nonzero;stroke:none"
         id="path18" />
      <path
         d="m 5826.76,274.449 c -9.85,-13.898 -18.36,-25.469 -25.51,-34.84 -7.15,-9.488 -13.79,-17.621 -19.8,-24.531 -6.06,-7.027 -11.72,-13.047 -17.15,-18.09 -5.43,-5.187 -10.98,-10 -16.76,-14.566 -7.15,-5.274 -13.56,-9.332 -19.1,-12.07 -5.67,-2.582 -13.79,-5.043 -24.49,-7.383 -3.6,9.492 -6.06,16.992 -7.15,22.929 -1.14,5.782 -1.6,11.801 -1.6,18.082 0,8.52 1.32,21.961 3.9,40.321 l 59.14,374.527 h -55.66 v 12.113 l 92.65,32.258 h 16.76 l -72.58,-451.211 c 6.76,5.434 12.19,10 16.49,13.832 4.22,3.828 8.28,7.621 12.11,11.45 3.83,3.71 7.5,8 11.09,12.691 3.56,4.687 7.74,10.469 12.7,17.148 l 15.5,20.782 z"
         style="fill:#7b7c7e;fill-opacity:1;fill-rule:nonzero;stroke:none"
         id="path20" />
      <path
         d="m 5977.46,568.199 c -6.91,-8.75 -14.92,-13.078 -23.79,-13.078 -5.94,0 -10.7,3.859 -14.53,11.719 -3.83,7.769 -5.66,17.14 -5.66,27.851 0,2.688 0.23,4.688 0.74,6.047 1.21,12.934 5.43,23.75 12.3,32.274 7.03,8.508 14.93,12.687 23.91,12.687 5.78,0 10.59,-3.82 14.41,-11.32 3.83,-7.66 5.67,-16.879 5.67,-27.617 v -6.024 c -1.72,-12.968 -6.17,-23.789 -13.05,-32.539 m 33.24,-293.121 c -9.84,-13.789 -18.36,-25.629 -25.5,-35.238 -7.27,-9.61 -13.68,-17.852 -19.46,-24.762 -5.9,-6.988 -11.44,-12.93 -16.87,-17.848 -5.32,-4.929 -10.98,-9.609 -16.76,-14.031 -6.64,-5.429 -12.93,-9.371 -18.71,-12.109 -5.94,-2.692 -14.45,-5.391 -25.51,-8.121 -3.71,9.492 -6.05,16.992 -7.15,22.89 -1.13,5.821 -1.6,11.871 -1.6,18.121 0,3.95 0.24,9.5 0.98,16.411 0.62,7.031 1.72,14.879 2.97,23.91 l 29.57,190.578 h -56.45 v 12.82 l 92.66,31.563 h 17.5 L 5924.1,211.988 c 6.29,5.434 11.56,10.121 16.13,14.184 4.46,3.949 8.52,7.887 12.07,11.719 3.6,3.828 7.15,7.847 10.75,12.418 3.55,4.461 7.77,10.121 12.65,16.761 2.23,3.09 4.69,6.41 7.19,9.77 2.31,3.32 5.16,6.988 8.36,11.051 z"
         style="fill:#7b7c7e;fill-opacity:1;fill-rule:nonzero;stroke:none"
         id="path22" />
      <path
         d="m 6088.83,168.98 c -5.04,-2.179 -12.58,-4.179 -22.42,-6.011 -3.21,7.621 -5.2,13.551 -6.06,17.851 -0.97,4.219 -1.33,9.258 -1.33,15.039 0,4.961 0.36,11.95 1.33,20.821 0.86,8.98 1.99,18.011 3.32,26.871 l 30.2,191.328 h -55.67 v 12.82 l 61.1,20.071 14.8,94.769 h 46.29 l -15.51,-96.719 h 63.83 l -5.43,-30.941 h -63.08 l -35.59,-220.777 c 11.72,8.007 21.33,14.769 28.94,20.468 7.5,5.508 14.65,11.051 21.06,16.371 6.52,5.43 12.81,10.969 18.87,16.758 6.01,5.891 13.04,13.039 21.21,21.563 l 18.08,-16.762 c -8.98,-9.84 -17.73,-18.98 -26.25,-27.23 -8.47,-8.239 -16.87,-16.129 -25.11,-23.551 -8.25,-7.379 -16.76,-14.418 -25.51,-21.059 -8.75,-6.75 -18.01,-13.43 -27.85,-20.191 -7.66,-5.43 -14.03,-9.141 -19.22,-11.489"
         style="fill:#7b7c7e;fill-opacity:1;fill-rule:nonzero;stroke:none"
         id="path24" />
      <path
         d="m 6368.52,5.26953 h -142.31 l 3.95,22.19137 h 49.02 l 37.58,155.6991 c 0.86,3.09 1.6,6.918 2.11,11.488 0.35,4.411 0.62,9.102 0.62,14.024 0,8.988 -0.62,17.148 -1.72,24.527 -1.13,7.391 -3.47,18.871 -7.03,34.5 l -36.99,167.18 h -54.3 v 18.133 l 91.29,26.828 57.03,-257.11 39.65,56.411 c 17.03,24.179 29.34,44.488 36.88,61.129 7.61,16.531 11.44,31.289 11.44,44.339 0,10.231 -3.08,20.231 -9.37,29.84 -6.29,9.571 -16.14,20.199 -29.57,31.922 l 48.32,34.84 c 10.82,-10.231 18.47,-20.82 23.16,-31.52 4.81,-10.742 7.15,-23.562 7.15,-38.211 0,-9.839 -1.25,-19.96 -3.48,-30.308 -2.18,-10.231 -5.9,-21.172 -11.09,-32.891 -5.04,-11.601 -11.68,-24.14 -19.69,-37.582 -8.16,-13.429 -17.97,-28.199 -29.57,-44.25 l -25.51,-36.328 c -9.84,-13.793 -17.85,-25.281 -23.9,-34.262 -6.02,-8.871 -10.86,-16.371 -14.42,-22.418 -3.55,-6.019 -6.29,-11.601 -8,-16.531 -1.84,-4.922 -3.32,-10.191 -4.69,-16.012 L 6325.51,27.4609 h 47.69 z"
         style="fill:#7b7c7e;fill-opacity:1;fill-rule:nonzero;stroke:none"
         id="path26" />
      <path
         d="M 427.539,427.621 342.34,661.602 c -1.91,5.16 -6.289,19.726 -13.078,43.597 -2.582,-9.969 -5.16,-20.078 -7.742,-30.16 -2.61,-10.238 -4.879,-18.359 -6.79,-24.527 L 235.309,427.621 Z M 671.602,168.398 H 525.859 L 468.199,318.59 H 194.691 L 138.012,168.398 H 0 L 258.051,830.27 h 148.668 z"
         style="fill:#4b4b4d;fill-opacity:1;fill-rule:nonzero;stroke:none"
         id="path28" />
      <path
         d="m 872.699,545.391 h 59.602 c 34.5,0 63.09,7.308 85.509,21.839 22.42,14.532 33.67,37.692 33.67,69.719 0,60.121 -36.13,90.082 -108.082,90.082 h -70.699 z m 0.973,-376.993 H 738.398 V 830.27 h 217.34 c 43.602,0 83.282,-4.801 118.992,-14.29 35.86,-9.5 64.68,-27.109 86.75,-52.859 21.92,-25.621 32.9,-61.359 32.9,-107.301 0,-42.269 -11.96,-77.269 -35.83,-104.84 -23.94,-27.621 -56.67,-44.769 -98.35,-51.179 21.71,-8.121 37.69,-19.801 48.43,-35.352 10.71,-15.5 21.57,-37.179 32.89,-64.918 l 95.63,-231.133 h -148.83 l -72.7,187.5 c -10.11,27.153 -20.46,46.602 -31.561,58.442 -10.969,11.789 -24.649,19.449 -40.899,23.238 -16.25,3.711 -39.449,5.582 -69.488,5.582 z"
         style="fill:#4b4b4d;fill-opacity:1;fill-rule:nonzero;stroke:none"
         id="path30" />
      <path
         d="m 2059.8,168.398 h -133.67 v 391.051 c 1.84,59.379 4.65,119.031 8.6,178.789 h -3.95 c -6.37,-26.25 -13.05,-49.179 -19.69,-68.859 L 1742.42,168.398 H 1619.34 L 1476.41,582.27 c -17.74,51.601 -33.01,103.589 -45.59,155.968 h -3.94 c 6.52,-63.937 9.84,-121.988 9.84,-173.976 V 168.398 H 1309.69 V 830.27 h 211.33 l 120.11,-347.461 c 18.71,-55.821 32.89,-110.149 42.62,-162.731 5.82,27.692 11.48,51.832 16.64,72.422 5.43,20.469 11.49,41.051 18.24,61.719 l 126.92,376.051 h 214.25 z"
         style="fill:#4b4b4d;fill-opacity:1;fill-rule:nonzero;stroke:none"
         id="path32" />
      <path
         d="m 2556.09,427.621 -85.15,233.981 c -1.96,5.16 -6.41,19.726 -13.05,43.597 -2.73,-9.969 -5.19,-20.078 -7.89,-30.16 -2.46,-10.238 -4.8,-18.359 -6.64,-24.527 L 2363.87,427.621 Z M 2800.16,168.398 H 2654.38 L 2596.76,318.59 H 2323.2 l -56.68,-150.192 h -137.97 l 258.13,661.872 h 148.55 z"
         style="fill:#4b4b4d;fill-opacity:1;fill-rule:nonzero;stroke:none"
         id="path34" />
      <path
         d="m 3001.25,270.66 c 7.38,0 13.52,-0.148 18.48,-0.23 4.65,-0.27 9.84,-0.391 15.39,-0.782 39.06,0 74.18,4.801 105.08,14.301 31.05,9.492 57.65,23.903 79.84,43.121 22.07,19.219 39.18,43.52 51.01,72.7 12.07,29.21 18.01,63.589 18.01,103 0,39.3 -8.63,76.531 -25.62,111.41 -17.27,34.84 -41.68,61.558 -73.71,79.922 -13.28,8.007 -27.23,14.296 -41.88,18.628 -14.8,4.418 -30.31,7.5 -46.56,9.5 -16.29,1.95 -34.38,3.2 -54.22,3.899 -19.96,0.633 -35.23,0.902 -45.82,0.902 z M 2867.42,168.398 V 830.27 h 150.82 c 40.9,0 77.62,-1.25 109.88,-3.821 32.31,-2.578 64.58,-8.64 97,-17.969 32.26,-9.378 61.44,-23.32 87.58,-41.679 22.07,-14.891 40.78,-32.5 56.28,-52.852 15.43,-20.32 27.74,-41.527 36.64,-63.679 8.83,-22.18 15.51,-46.321 19.81,-72.692 4.34,-26.367 6.52,-52.848 6.52,-79.726 0,-55.582 -9.61,-106.723 -28.83,-153.512 -19.21,-46.961 -49.64,-85.391 -91.4,-115.32 -21.95,-16.29 -46.84,-28.86 -74.53,-37.809 -27.74,-9.141 -56.33,-15.191 -85.78,-18.242 -29.42,-3.129 -60.24,-4.571 -92.5,-4.571 z"
         style="fill:#4b4b4d;fill-opacity:1;fill-rule:nonzero;stroke:none"
         id="path36" />
      <path
         d="m 3896.33,427.621 -85.12,233.981 c -1.99,5.16 -6.41,19.726 -13.05,43.597 -2.73,-9.969 -5.19,-20.078 -7.89,-30.16 -2.46,-10.238 -4.84,-18.359 -6.68,-24.527 L 3704.14,427.621 Z M 4140.39,168.398 H 3994.65 L 3936.99,318.59 H 3663.48 L 3606.8,168.398 h -137.97 l 258.12,661.872 h 148.56 z"
         style="fill:#4b4b4d;fill-opacity:1;fill-rule:nonzero;stroke:none"
         id="path38" />
      <path
         d="m 4292.07,1049.1 c -1.52,1.02 -3.09,1.99 -4.65,3.05 -4.69,3.28 -9.02,6.99 -13.04,11.09 -4.42,4.26 -8.4,8.95 -12.27,13.71 -4.14,5.16 -8.09,10.43 -11.56,16.06 -3.95,6.05 -7.35,12.58 -10.08,19.29 -4.61,10.9 -7.5,22.62 -9.34,34.38 -2.18,13.24 -3.08,26.56 -2.97,39.84 0,15.36 1.29,30.63 3.25,45.82 1.99,16.25 4.61,32.54 8.04,48.52 3.44,16.41 7.66,32.77 12.03,49.06 4.85,17.74 9.93,35.51 15.75,53.01 5.66,16.95 12.15,33.75 18.9,50.23 6.64,15.98 13.6,31.84 20.98,47.43 6.41,13.47 13.05,26.91 19.37,40.46 10.12,21.22 19.54,42.78 28.79,64.42 6.14,14.3 12.19,28.51 18.95,42.62 4.92,10.31 10.16,20.58 12.97,31.64 1.4,4.72 2.26,9.68 2.5,14.68 0.19,3.01 0.08,6.06 0,8.99 l 1.48,147.22 c -3.28,-11.99 -6.52,-23.86 -9.53,-35.89 -3.55,-13.6 -6.87,-27.23 -10.35,-40.86 -3.44,-13.28 -7.07,-26.57 -11.09,-39.77 -3.68,-12.11 -7.66,-24.1 -12.11,-35.98 -4.22,-11.75 -8.87,-23.43 -13.95,-34.84 -7.11,-16.05 -14.96,-31.72 -22.81,-47.34 -7.23,-14.3 -14.3,-28.67 -21.64,-42.82 -7.42,-14.21 -15.16,-28.16 -22.46,-42.5 -7.85,-15.23 -15.2,-30.7 -22.35,-46.32 -8.71,-19.07 -16.99,-38.36 -23.86,-58.13 -6.22,-17.38 -11.29,-35.15 -16.25,-52.89 -5.36,-19.3 -10.59,-38.67 -14.73,-58.28 -4.22,-19.77 -7.42,-39.88 -9.1,-60.04 -1.76,-19.49 -2.15,-39.1 -1.21,-58.75 0.82,-18.71 2.89,-37.46 7.85,-55.51 2.93,-11.4 6.99,-22.46 12.07,-33.16 5.51,-11.76 12.34,-23.05 20.62,-33.09 4.42,-5.43 9.18,-10.43 14.26,-15.19 5.12,-4.81 10.59,-9.26 16.52,-13.21 5.9,-3.94 12.35,-7.3 18.91,-10.23 6.8,-3.16 13.75,-6.02 20.9,-8.05 7.19,-2.22 14.57,-3.71 21.99,-5.15 0,0 -9.3,17.38 -11.87,23.16 -2.62,5.86 -8.91,23.32 -8.91,23.32"
         style="fill:#fac37f;fill-opacity:1;fill-rule:nonzero;stroke:none"
         id="path40" />
      <path
         d="m 4312.34,1002.62 c 3.01,-4.768 6.45,-9.179 10,-13.6 4.3,-5.391 9.07,-10.5 14.18,-15.188 5.16,-4.812 10.67,-9.262 16.53,-13.051 5.9,-3.98 12.26,-7.301 18.63,-10.351 6.8,-3.282 13.75,-6.129 20.94,-8.16 5.04,-1.411 10.19,-2.469 15.31,-3.438 0,0 -7.97,18.898 -10.27,25.348 -1.96,5.23 -6.76,21.441 -6.76,21.441 -0.59,0.43 -1.13,0.789 -1.68,1.18 -4.69,3.078 -8.95,6.988 -12.77,11.051 -4.34,4.378 -8.25,9.028 -12.07,13.908 -4.18,5.08 -8.21,10.35 -11.84,15.86 -4.06,6.09 -7.46,12.58 -10.35,19.26 -2.97,6.91 -5.2,14.1 -7.11,21.36 -2.15,8.21 -3.87,16.41 -4.69,24.77 -0.94,9.33 -0.74,18.75 -0.23,28.12 0.74,14.77 2.14,29.34 3.9,43.99 2.54,20.54 5.82,40.9 9.89,61.25 3.71,18.98 8.12,37.89 13.71,56.44 5.23,17.31 11.64,34.38 18,51.29 6.25,16.64 12.5,33.24 19.42,49.53 6.52,15.55 13.75,30.78 20.94,46.02 4.84,10.23 9.68,20.55 14.49,30.82 6.05,12.77 11.99,25.74 17.69,38.63 6.25,13.95 12.23,28.09 18.44,41.95 5.55,12.58 11.29,25.04 16.76,37.74 2.15,5.08 4.33,10.23 5.9,15.59 1.32,4.72 2.22,9.76 2.38,14.68 0.2,2.97 0.16,6.06 0,9.03 l 0.78,154.49 c -1.95,-8.95 -3.94,-17.89 -5.9,-26.84 -2.77,-12.15 -5.51,-24.26 -8.32,-36.33 -3.28,-13.75 -6.64,-27.46 -10.31,-41.05 -3.52,-12.93 -7.38,-25.74 -11.68,-38.44 -3.83,-11.64 -8.16,-23.28 -12.7,-34.72 -4.49,-11.25 -9.29,-22.43 -14.53,-33.32 -5,-10.55 -10.47,-20.86 -15.7,-31.29 -8.05,-15.86 -15.59,-31.88 -23.83,-47.54 -6.64,-12.62 -13.59,-25.12 -20.19,-37.78 -10.24,-19.22 -19.69,-38.86 -28.32,-58.9 -6.53,-15 -12.62,-30.08 -17.93,-45.47 -6.14,-17.42 -11.25,-35.2 -16.21,-53.01 -5.43,-19.26 -10.59,-38.63 -14.77,-58.2 -2.89,-13.01 -5.27,-26.21 -6.84,-39.46 -1.75,-13.35 -2.57,-26.99 -3.24,-40.5 -0.74,-12.93 -1.17,-25.94 -0.51,-38.83 0.28,-6.41 0.9,-12.78 1.49,-19.14 0.62,-6.21 1.29,-12.42 2.5,-18.56 1.13,-6.01 2.73,-11.95 4.41,-17.89 0.51,-2.03 1.06,-4.18 1.68,-6.21 4.46,-14.53 11.64,-32.03 20.78,-46.48"
         style="fill:#f7b15b;fill-opacity:1;fill-rule:nonzero;stroke:none"
         id="path42" />
      <path
         d="m 4407.42,938.832 c 1.41,-2.852 3.05,-5.473 4.61,-8.211 3.63,-6.211 7.5,-12.383 12.07,-17.922 4.3,-5.359 9.34,-10.16 14.53,-14.648 5.47,-4.813 11.14,-9.18 17.19,-13.129 5.94,-3.871 12.23,-7.301 18.71,-10.313 6.76,-3.238 13.71,-6.019 20.9,-8.16 5.43,-1.758 11.02,-3.008 16.6,-4.379 0,0 -8.12,17.852 -10.19,23.629 -1.96,5.512 -5.9,21.641 -5.9,21.641 -1.33,1.058 -2.66,1.879 -3.99,2.89 -4.53,3.25 -8.79,7.04 -12.73,10.981 -9.42,9.18 -17.7,19.449 -24.69,30.508 -3.87,6.011 -7.42,12.191 -10.23,18.75 -3.09,6.801 -5.43,13.941 -7.15,21.211 -2.03,8.36 -3.36,16.8 -3.99,25.39 -0.62,8.98 -0.54,17.97 -0.19,26.95 0.62,15.04 2.15,30.08 3.94,45.08 2.43,20.59 5.36,41.13 9.57,61.45 3.75,18.71 8.6,37.26 14.03,55.62 5.08,17.58 10.7,35 17.19,52.15 6.09,16.45 13.16,32.62 20.15,48.75 6.84,15.7 13.75,31.33 20.9,46.88 7.89,17.26 15.86,34.49 23.87,51.67 6.6,14.22 13.16,28.36 19.65,42.54 5.27,11.49 10.46,22.89 15.58,34.42 5.47,12.38 10.86,24.88 14.69,38.01 1.72,5.5 3.08,11.17 3.4,16.79 0.19,3.01 0.11,6.06 0,9.07 l 1.48,164.29 c -2.26,-9.14 -4.57,-18.28 -6.6,-27.5 -1.6,-7.11 -3.05,-14.22 -4.45,-21.29 -1.33,-6.95 -2.54,-13.86 -3.99,-20.78 -2.85,-14.76 -6.4,-29.41 -10.23,-43.98 -3.48,-13.09 -7.15,-26.14 -11.6,-38.87 -4.1,-12.19 -8.95,-24.18 -13.75,-36.13 -4.57,-11.49 -9.18,-22.93 -14.22,-34.14 -6.68,-14.93 -14.18,-29.42 -21.68,-43.99 -5.51,-10.74 -11.1,-21.44 -16.72,-32.15 -7.42,-14.14 -15.12,-28.28 -22.11,-42.57 -7.07,-14.18 -13.52,-28.72 -20,-43.09 -6.8,-15.04 -13.75,-29.92 -19.84,-45.27 -6.72,-16.53 -12.46,-33.48 -17.7,-50.63 -5.78,-18.55 -11.13,-37.26 -15.51,-56.17 -3.16,-13.28 -5.78,-26.72 -8.08,-40.12 -2.35,-13.36 -4.26,-26.76 -5.43,-40.31 -1.21,-13.09 -1.72,-26.37 -1.72,-39.45 0,-12.82 0.39,-25.63 1.72,-38.32 0.62,-6.53 1.48,-12.97 2.65,-19.339 0.71,-3.711 1.37,-7.34 2.27,-11.02 3.79,-15.07 10.35,-32.922 16.99,-46.789"
         style="fill:#f4a034;fill-opacity:1;fill-rule:nonzero;stroke:none"
         id="path44" />
      <path
         d="m 4511.05,862.191 c 2.7,-6.019 6.33,-11.41 10,-16.761 2.74,-3.91 5.75,-7.539 8.87,-11.168 4.85,-5.672 9.92,-11.25 15.51,-16.211 5.7,-5.199 11.99,-9.891 18.44,-14.34 11.36,-7.93 23.24,-15.191 36.09,-20.082 17.23,-7.109 36.17,-9.719 54.81,-11.207 14.02,-1.25 27.73,-1.762 41.56,-1.684 13.63,0.043 27.3,0.821 40.9,2.231 19.96,1.91 39.72,5.191 59.25,9.691 20,4.531 39.77,10.461 59.22,17.141 25.86,8.871 51.37,19.148 75.51,31.801 25.08,12.777 48.91,27.929 71.8,44.527 23.51,16.762 46.01,34.891 66.87,54.891 15.78,14.878 30.71,30.781 44.73,47.3 13.87,16.25 26.99,33.13 39.37,50.43 12.23,16.99 23.75,34.53 34.14,52.7 10.4,17.93 19.81,36.44 28.05,55.58 8.05,18.4 15,37.31 21.37,56.37 6.48,19.3 12.42,38.83 16.72,58.67 4.06,17.89 6.76,36.02 9.14,54.22 2.26,17.07 4.22,34.26 5.62,51.44 1.37,16.57 2.23,33.17 2.23,49.73 0.08,18.63 -0.98,37.23 -2.97,55.74 -2.42,24.42 -6.4,48.64 -12.03,72.58 -6.68,29.14 -15.78,57.81 -27.27,85.43 -11.36,27.81 -25.23,54.53 -41.05,80.04 -15.66,25.7 -33.4,50 -52.85,72.85 -19.34,22.93 -40.59,44.38 -63.05,64.42 -22.38,20.19 -46.17,38.98 -71.52,55.39 -20.47,13.63 -41.84,25.7 -63.95,36.56 -27.93,13.87 -56.87,25.7 -86.52,35.55 -23.91,8.12 -48.28,14.92 -72.97,19.96 -25.51,5.39 -51.29,9.02 -77.3,11.17 -33.87,3.01 -68.01,3.83 -102.04,1.52 -35.54,-2.03 -71.01,-7.38 -105.7,-15.66 -34.37,-7.74 -67.93,-18.4 -100.58,-31.76 -25.98,-10.39 -51.14,-22.54 -75.47,-36.41 -24.34,-13.63 -47.86,-28.9 -70.04,-45.89 -22.39,-16.72 -43.44,-35.2 -63.17,-54.93 -19.45,-19.14 -37.69,-39.76 -54.14,-61.48 -12.5,-16.13 -24.1,-32.97 -34.68,-50.43 -10.47,-16.99 -19.97,-34.53 -28.48,-52.62 -8.71,-18.12 -16.33,-36.72 -22.89,-55.74 -6.56,-18.75 -12.11,-37.77 -16.53,-57.11 -3.04,-13.2 -5.58,-26.6 -7.81,-40.08 -2.26,-13.2 -4.22,-26.52 -4.72,-40.04 -0.36,-8.47 -0.16,-17.07 0.82,-25.43 0.97,-9.49 2.96,-18.86 4.84,-28.16 0.66,-3.01 1.29,-5.98 1.87,-8.98 0.24,-0.94 0.36,-1.92 0.63,-2.97 0.31,1.13 0.66,2.22 0.94,3.36 1.01,3.32 1.99,6.64 2.97,9.92 1.21,4.22 2.5,8.36 3.71,12.62 3.47,11.95 6.64,24.06 9.57,36.24 5.86,23.79 10.74,47.86 18.04,71.33 8.56,29.3 20.75,57.58 34.81,84.73 13.71,26.91 29.18,52.77 46.72,77.07 17.73,25.04 37.58,48.48 59.06,70.31 21.02,21.76 43.67,41.92 67.81,60.12 24.49,18.67 50.55,35.27 77.74,49.8 27.26,14.81 55.62,27.58 84.84,37.97 29.57,10.71 59.96,19.03 90.94,24.93 31.52,6.32 63.55,10.19 95.7,11.01 26.17,0.82 52.38,-0.39 78.4,-3.01 25.08,-2.38 49.92,-6.09 74.49,-11.6 24.3,-5.19 48.32,-12.19 71.8,-20.58 23.16,-8.13 45.74,-17.58 67.69,-28.64 27,-13.51 52.86,-29.33 77.62,-46.87 24.69,-17.11 48.24,-35.82 70.08,-56.49 22.07,-20.43 42.5,-42.69 60.74,-66.64 18.13,-23.28 34.26,-48.08 48.71,-73.83 14.73,-25.89 27.66,-52.73 38.32,-80.5 8.79,-22.19 15.98,-44.96 21.64,-68.17 5.24,-20.74 9.26,-41.91 11.41,-63.16 2.03,-19.1 2.54,-38.48 2.54,-57.7 0.08,-11.95 -0.08,-23.94 -0.9,-35.82 -0.43,-6.72 -1.09,-13.51 -1.76,-20.15 -0.86,-4.65 -1.72,-9.26 -2.65,-13.83 -2.62,-12.35 -5.82,-24.57 -9.38,-36.8 -5.19,-18.24 -11.05,-36.37 -17.97,-54.14 -6.79,-17.81 -14.53,-35.12 -23.28,-51.99 -8.79,-17.03 -18.48,-33.52 -28.79,-49.65 -13.55,-21.41 -28.16,-42.19 -44.26,-61.68 -16.05,-19.65 -33.63,-38.12 -52.14,-55.55 -18.6,-17.692 -38.13,-34.328 -58.99,-49.18 -26.13,-19.019 -54.26,-35.07 -83.44,-48.98 -29.53,-14.41 -60.15,-26.481 -91.68,-35.899 -24.33,-7.5 -49.21,-13.359 -74.45,-16.722 -19.65,-2.848 -39.45,-4.18 -59.22,-3.399 -15.66,0.551 -31.4,2.27 -46.29,6.641 -11.68,3.168 -22.89,7.929 -33.71,13.48 -8.98,4.528 -17.65,9.731 -25.04,16.41 -5.7,4.957 -10.66,10.739 -15.04,16.95 -6.52,9.14 -11.83,18.988 -15.97,29.3 -4.1,9.957 -7.19,20.348 -9.06,30.93 -2,10.359 -2.93,20.981 -3.01,31.488 -0.16,16.871 1.68,33.711 4.37,50.391 2.93,19.3 7.07,38.36 11.49,57.38 4.49,19.07 9.37,38.17 15.11,56.96 7.93,25.97 17.58,51.44 28.05,76.52 7.62,18.44 15.55,36.56 23.87,54.61 5.62,12.23 11.52,24.41 17.19,36.6 10.74,22.77 21.25,45.63 31.83,68.44 10.63,23.01 21.33,46.01 30.43,69.61 2.15,5.74 4.3,11.48 6.13,17.34 1.64,5.39 3.05,10.94 3.44,16.64 0.2,3.13 0.12,6.29 0,9.45 v 156.88 c -1.33,-4.77 -2.65,-9.45 -3.98,-14.22 -3.87,-14.37 -7.54,-28.75 -11.06,-43.16 -3.63,-15.08 -7.07,-30.12 -10.74,-45.16 -3.4,-13.71 -6.95,-27.42 -11.6,-40.78 -4.3,-12.85 -9.57,-25.39 -15,-37.85 -6.37,-14.65 -13.05,-29.18 -20.16,-43.56 -8.32,-16.99 -17.3,-33.67 -26.33,-50.43 -11.21,-20.62 -22.5,-41.21 -33.43,-62.03 -10.2,-19.33 -20.04,-38.83 -28.75,-58.86 -6.25,-13.99 -11.88,-28.29 -17.19,-42.62 -6.52,-17.42 -12.62,-35.04 -17.97,-52.78 -6.05,-19.88 -11.21,-40.03 -15.51,-60.39 -3.12,-14.33 -5.7,-28.71 -7.85,-43.28 -2.15,-14.14 -3.79,-28.4 -4.69,-42.81 -0.93,-14.262 -1.13,-28.48 -0.74,-42.809 0.35,-13.64 1.17,-27.312 3.71,-40.671 0.9,-5.54 4.81,-22.93 6.41,-28.36 3.28,-11.601 8.16,-22.539 13.08,-33.469"
         style="fill:#f18e00;fill-opacity:1;fill-rule:nonzero;stroke:none"
         id="path46" />
    </g>
  </g>
</svg>
