<?xml version="1.0" encoding="UTF-8" standalone="no"?>
<!-- Created with Inkscape (http://www.inkscape.org/) -->

<svg
   version="1.1"
   id="svg2"
   width="175.81332"
   height="124.56"
   viewBox="0 0 175.81332 124.56"
   sodipodi:docname="logo_Bakker_Heftruks_2_pms280_cmyk.eps"
   xmlns:inkscape="http://www.inkscape.org/namespaces/inkscape"
   xmlns:sodipodi="http://sodipodi.sourceforge.net/DTD/sodipodi-0.dtd"
   xmlns="http://www.w3.org/2000/svg"
   xmlns:svg="http://www.w3.org/2000/svg">
  <defs
     id="defs6" />
  <sodipodi:namedview
     id="namedview4"
     pagecolor="#ffffff"
     bordercolor="#000000"
     borderopacity="0.25"
     inkscape:showpageshadow="2"
     inkscape:pageopacity="0.0"
     inkscape:pagecheckerboard="0"
     inkscape:deskcolor="#d1d1d1" />
  <g
     id="g8"
     inkscape:groupmode="layer"
     inkscape:label="ink_ext_XXXXXX"
     transform="matrix(1.3333333,0,0,-1.3333333,0,124.56)">
    <g
       id="g10"
       transform="scale(0.1)">
      <path
         d="M 153.551,934.164 50.2188,715.836 H 76.8867 V 272.5 H 224.387 v 443.336 h 24.164 l -95,218.328"
         style="fill:#1b458f;fill-opacity:1;fill-rule:nonzero;stroke:none"
         id="path12" />
      <path
         d="M 1318.55,139.172 1100.23,242.5 V 215.828 H 256.895 V 68.3281 H 1100.23 V 44.1719 l 218.32,95.0001"
         style="fill:#1b458f;fill-opacity:1;fill-rule:nonzero;stroke:none"
         id="path14" />
      <path
         d="M 1100.21,283.328 H 347.742 c -31.312,0 -56.691,26.301 -56.691,58.742 v 372.094"
         style="fill:none;stroke:#1b458f;stroke-width:30;stroke-linecap:butt;stroke-linejoin:miter;stroke-miterlimit:10;stroke-dasharray:none;stroke-opacity:1"
         id="path16" />
      <path
         d="m 499.453,328.176 c -39.726,0 -69.519,31.992 -69.519,71.719 0,40.269 30.066,73.933 73.113,73.933 42.754,0 72.82,-33.664 72.82,-75.039 v -70.613 h -36.414 v 70.613 c 0,21.797 -16.277,39.727 -36.406,39.727 -20.149,0 -36.414,-17.383 -36.414,-38.621 0,-20.969 16.265,-36.411 37.234,-36.411 h 20.969 v -35.308 h -25.383"
         style="fill:#1b458f;fill-opacity:1;fill-rule:nonzero;stroke:none"
         id="path18" />
      <path
         d="m 631.063,368.992 v -40.816 h -36.415 v 205.242 h 36.415 V 418.652 l 46.625,51.59 h 50.21 l -52.964,-55.445 55.996,-86.621 h -46.352 l -35.308,59.851 -18.207,-19.035"
         style="fill:#1b458f;fill-opacity:1;fill-rule:nonzero;stroke:none"
         id="path20" />
      <path
         d="m 777.297,368.992 v -40.816 h -36.418 v 205.242 h 36.418 V 418.652 l 46.621,51.59 h 50.203 l -52.969,-55.445 56.004,-86.621 h -46.343 l -35.317,59.851 -18.199,-19.035"
         style="fill:#1b458f;fill-opacity:1;fill-rule:nonzero;stroke:none"
         id="path22" />
      <path
         d="m 973.176,415.344 c -4.973,15.996 -19.035,25.379 -35.317,25.379 -20.41,0 -37.234,-18.211 -37.234,-41.934 0,-23.437 16.824,-40.82 37.234,-40.82 8.821,0 17.493,2.461 24.121,7.961 l 28.801,-20.696 c -12.453,-12.89 -30.468,-20.656 -52.363,-20.656 -40.281,0 -73.105,33.391 -73.105,74.211 0,41.375 32.824,75.039 73.105,75.039 41.648,0 77.232,-32.004 71.172,-88.828 h -99.754 v 30.344 h 63.34"
         style="fill:#1b458f;fill-opacity:1;fill-rule:nonzero;stroke:none"
         id="path24" />
      <path
         d="m 1100.1,438.789 c -23.19,4.141 -38.63,-8.281 -38.63,-28.406 v -82.207 h -36.41 v 82.207 c 0,40.269 27.86,68.406 75.04,62.613 v -34.207"
         style="fill:#1b458f;fill-opacity:1;fill-rule:nonzero;stroke:none"
         id="path26" />
      <path
         d="m 348.262,473.828 c -8.367,0 -26.336,-1.328 -33.606,-3.711 l 0.012,-35.898 c 6.348,5.918 24.57,4.297 33.594,4.297 20.136,0 36.406,-17.383 36.406,-38.621 0,-20.969 -16.27,-36.411 -37.234,-36.411 h -31.079 v -35.308 h 35.493 c 39.722,0 69.238,31.992 69.238,71.719 0,40.269 -29.797,73.933 -72.824,73.933"
         style="fill:#1b458f;fill-opacity:1;fill-rule:nonzero;stroke:none"
         id="path28" />
      <path
         d="m 414.316,78.3008 h -23.648 v 53.9062 c 0,5.383 -1.785,17.559 -17.195,17.559 -10.575,0 -17.91,-7.161 -17.91,-17.559 V 78.3008 H 331.738 V 209.609 h 23.825 v -43.906 c 5.906,4.492 13.07,7.168 21.136,7.168 22.571,0 37.617,-16.301 37.617,-40.664 V 78.3008"
         style="fill:#ffffff;fill-opacity:1;fill-rule:nonzero;stroke:none"
         id="path30" />
      <path
         d="m 498.215,143.855 c -4.297,5.188 -10.742,8.235 -18.27,8.235 -13.617,0 -24.547,-10.742 -25.086,-26.504 z m 26.512,-36.179 c -5.379,-18.8088 -21.68,-31.5237 -44.606,-31.5237 -26.156,0 -47.293,21.4844 -47.293,48.1837 0,26.68 21.137,48.535 47.293,48.535 22.219,0 40.84,-13.965 45.324,-38.691 l -65.207,-27.403 c 4.649,-6.269 11.641,-9.8434 19.707,-9.8434 7.7,0 15.582,3.3984 19.524,10.7424 h 25.258"
         style="fill:#ffffff;fill-opacity:1;fill-rule:nonzero;stroke:none"
         id="path32" />
      <path
         d="M 584.625,170.195 V 149.227 H 567.961 V 78.1055 h -23.648 v 91.0155 c 0,24.531 14.687,42.805 41.207,39.766 v -22.215 c -11.297,0.887 -17.383,-3.774 -17.559,-16.477 h 16.664"
         style="fill:#ffffff;fill-opacity:1;fill-rule:nonzero;stroke:none"
         id="path34" />
      <path
         d="m 644.934,78.4766 c -27.051,-2.8711 -41.379,13.4179 -41.379,38.6914 v 76.836 h 23.648 v -23.457 h 16.664 V 149.59 h -16.664 v -32.598 c 0,-12.898 5.906,-17.7342 17.731,-17.0115 V 78.4766"
         style="fill:#ffffff;fill-opacity:1;fill-rule:nonzero;stroke:none"
         id="path36" />
      <path
         d="M 712.891,150.129 C 697.844,152.813 687.82,144.758 687.82,131.66 V 78.3008 H 664.18 V 131.66 c 0,26.153 18.086,44.434 48.711,40.676 v -22.207"
         style="fill:#ffffff;fill-opacity:1;fill-rule:nonzero;stroke:none"
         id="path38" />
      <path
         d="m 769.148,76.1523 c -25.796,0 -41.023,17.0118 -41.023,41.1917 v 53.203 h 23.645 v -53.914 c 0,-5.195 1.777,-17.551 17.378,-17.551 10.383,0 17.915,7.324 17.915,17.551 v 53.914 h 23.628 v -53.203 c 0,-23.4768 -16.461,-41.1917 -41.543,-41.1917"
         style="fill:#ffffff;fill-opacity:1;fill-rule:nonzero;stroke:none"
         id="path40" />
      <path
         d="m 875.945,151.199 c -13.086,0 -26.636,-12.176 -26.636,-27.051 0,-14.519 13.55,-25.2222 26.636,-25.2222 V 77.4414 c -27.761,0 -50.664,20.1953 -50.664,46.8946 0,26.68 22.903,48.535 50.664,48.535"
         style="fill:#ffffff;fill-opacity:1;fill-rule:nonzero;stroke:none"
         id="path42" />
      <path
         d="M 915.637,103.262 V 76.7383 H 891.98 V 210 h 23.657 v -74.512 l 30.269,33.496 h 32.602 L 944.109,132.977 980.48,76.7383 h -30.097 l -22.934,38.8667 -11.812,-12.343"
         style="fill:#ffffff;fill-opacity:1;fill-rule:nonzero;stroke:none"
         id="path44" />
      <path
         d="m 990.598,101.23 c 6.074,-0.554 11.442,0 14.842,3.399 2.34,2.148 4.66,6.445 4.66,19.883 0,12.187 1.26,26.152 12,36.367 7.69,7.519 17.91,10.566 31.17,9.492 v -22.93 c -6.61,0.723 -11.46,-0.539 -14.86,-3.945 -2.15,-2.324 -4.65,-5.73 -4.65,-18.984 0,-12.176 -1.25,-27.4026 -11.82,-37.2659 -7.71,-7.3359 -18.28,-9.8438 -31.342,-8.9453 V 101.23"
         style="fill:#ffffff;fill-opacity:1;fill-rule:nonzero;stroke:none"
         id="path46" />
      <path
         d="M 308.676,154.836 C 308.676,69.3359 242.195,0.3125 153.727,0 81.2539,-0.253906 -0.925781,57.8125 0.0117188,154.063 0.570313,211.863 29.3867,262.5 75.9492,290 c 22.2891,13.164 50.1138,22.207 77.8128,20.625 92.808,-5.312 154.914,-70.273 154.914,-155.789"
         style="fill:#ffffff;fill-opacity:1;fill-rule:nonzero;stroke:none"
         id="path48" />
      <path
         d="m 240.625,267.07 c -1.559,4.629 3.43,2.735 6.16,3.086 -2.512,6.211 -10.535,6.934 -13.871,12.332 -4.871,0.246 -5.141,-4.109 -10.785,-3.074 -2.395,5.481 5.234,0.918 4.629,4.609 -3.867,4.356 -11.555,4.883 -15.414,9.258 -3.258,-1.379 -4.559,-4.707 -9.25,-4.636 -1.063,4.148 3.187,2.988 4.625,4.636 -8.594,5.547 -18.946,7.539 -27.739,1.532 0.458,3.156 4.172,3.019 4.625,6.164 -9.078,2.058 -19.542,2.636 -24.656,-3.086 -0.199,2.773 1.887,3.254 1.543,6.172 -13.949,0.234 -19.097,0.925 -23.121,-7.708 -7.215,0.188 1.676,2.239 0,6.165 -12.531,0.722 -17.547,-4.422 -22.305,-10.965 1.196,1.375 -0.695,3.66 -0.808,6.336 -7.008,-3.77 -20.0627,-1.496 -18.4924,-13.868 -4.6289,-1.543 -2.7304,3.438 -3.082,6.172 -7.8203,-4.511 -18.0273,-6.64 -18.4883,-18.496 -2.0976,0.489 -1.2812,3.867 -1.539,6.172 -6.8125,-1.933 -9.9922,-7.488 -15.4141,-10.801 -0.7734,-4.843 3.3594,-6.035 0,-9.238 -2.0938,0.469 -1.2734,3.848 -1.5391,6.152 -10.0468,-3.039 -14.6718,-13.523 -13.8672,-23.105 -2.8515,0.234 -0.9531,5.215 -3.0859,6.172 -4.2227,-4.004 -6.8008,-9.641 -10.7891,-13.875 -0.2265,-4.731 5.4219,-6.926 1.5352,-10.793 -2.0586,1.015 -2.8594,3.301 -3.0742,6.152 -4.3633,-3.847 -4.8906,-11.543 -9.2461,-15.39 -0.0078,-5.137 5.0117,-5.262 4.6211,-10.782 -4.1446,-1.074 -2.9766,3.164 -4.6211,4.61 -5.6914,-6.543 -8.38283,-19.414 -1.5391,-26.192 -4.207,-1.125 -3.1054,3.047 -6.16795,3.086 -2.61719,-4.062 -0.15234,-13.203 -3.08203,-16.953 0.14453,-3.965 6.01958,-2.207 6.16798,-6.172 0.2578,-6.504 -2.3711,0.028 -4.62892,0 -3.52734,-2.637 -0.5625,-11.758 -1.53906,-16.953 1.36719,-3.769 8.60158,-1.672 7.71098,-7.695 -4.21098,-1.133 -3.1055,3.066 -6.17192,3.086 0.6836,-10.625 0.92578,-21.7 10.78512,-23.125 -0.2304,-3.828 -5.2148,-0.45 -6.1562,0 2.3281,-8.965 2.3437,-20.2542 13.8672,-20.0394 0.4648,-6.289 -3.2149,-0.8203 -6.1641,-1.5351 3.4141,-8.4063 5.1563,-18.4649 16.9492,-18.5039 0.4649,-6.2891 -2.1328,0.2617 -6.164,-1.5235 C 35.6563,66.2227 40.4297,58.1445 52.6211,57.5 52.1445,55.4102 48.7617,56.2109 46.4492,55.957 51,48.2031 56.8125,40.5273 68.0273,43.6211 c 2.3985,-5.4766 -5.2343,-0.9258 -4.625,-4.6172 3.7422,-4.4726 10.6641,-5.7734 13.875,-10.7891 4.8711,-0.246 5.1485,4.0899 10.7774,3.086 0.4766,-3.5664 -4.4453,-1.7305 -4.6133,-4.6211 6.6289,-5.3906 15.3867,-10.0391 24.6566,-4.6289 -0.457,-3.1445 -4.172,-3.0274 -4.621,-6.1602 11.027,-2.8633 16.992,-6.04685 26.195,0 -0.551,-2.0234 -2.719,-2.4336 -3.086,-4.6211 8.605,-5.70309 20.469,-2.36325 26.195,3.0782 -0.015,-3.0586 -4.203,-1.9649 -3.078,-6.16411 1.086,-1.49609 11.231,1.00391 16.953,0 4.344,0.27344 1.918,7.32421 7.703,6.16411 -0.804,-2.2852 -2.281,-3.8789 -3.086,-6.16411 6.372,0.83985 12.129,2.24611 18.497,3.08591 3.507,1.1133 0.457,8.7891 6.168,7.6953 0.195,-2.7539 -1.891,-3.2421 -1.547,-6.1523 9.945,2.3828 20.043,4.6094 21.578,15.4023 3.832,-0.2265 0.445,-5.2187 0,-6.164 7.808,-0.1172 9.961,5.4492 16.945,6.164 -1.234,5.3399 2.301,5.9336 1.543,10.7891 6.297,0.4688 -0.254,-2.1406 1.539,-6.1719 6.926,1.3008 9.18,7.2657 15.414,9.2578 0,3.5938 0,7.1875 0,10.7813 4.637,1.5625 2.731,-3.4297 3.082,-6.1719 5.551,3.1953 8.317,9.1602 13.871,12.3321 0.754,4.875 -2.781,5.4414 -1.547,10.7929 4.645,1.5547 2.735,-3.4179 3.086,-6.164 5.723,3.0117 6.977,10.4804 12.328,13.8671 0.254,4.875 -4.093,5.1485 -3.082,10.793 5.477,2.3828 0.93,-5.2344 4.622,-4.6289 4.355,3.8594 4.89,11.543 9.25,15.4102 -1.372,3.2424 -4.696,4.5504 -4.625,9.2574 4.144,1.055 2.976,-3.203 4.625,-4.629 5.566,8.594 7.546,18.946 1.535,27.735 3.558,0.469 1.715,-4.445 4.629,-4.617 4.515,7.234 4.191,21.09 -3.086,24.656 1.519,4.726 4.113,-1.777 6.168,-1.555 5.195,9.367 -1.422,20.141 -6.168,24.66 2.765,0.204 3.25,-1.882 6.168,-1.543 -0.442,6.25 -2.649,10.711 -3.082,16.961 -0.368,4.25 -8.7,0.547 -7.707,6.157 3.218,0.664 4.082,-1.047 6.16,-1.536 0.176,7.422 -7.071,13.711 -4.617,18.497 C 336.148,106.895 255.73,-3.47656 143.539,5.09766 68.4219,10.8594 11.5977,68.4063 4.84375,137.637 -4.42578,232.645 73.6563,319.434 172.813,304.063 c 55.183,-8.575 99.687,-38.106 120.207,-90.918 -3.512,1.113 -7.875,1.367 -10.79,3.085 1.887,4.688 5.879,-2.265 7.708,1.536 -5.165,6.648 -5.469,16.367 -16.047,17.605 -4.149,2.871 1.605,1.067 5.257,0.879 -3.703,6.074 -8.281,11.238 -12.332,16.965 -3.628,0.039 -5.332,-1.301 -10.046,-0.188 -1.551,4.629 4.242,1.368 6.964,1.719 -5.914,6.777 -10.336,16.668 -23.109,12.324"
         style="fill:#1b458f;fill-opacity:1;fill-rule:evenodd;stroke:none"
         id="path50" />
      <path
         d="m 240.625,267.07 c -1.559,4.629 3.43,2.735 6.16,3.086 -2.512,6.211 -10.535,6.934 -13.871,12.332 -4.871,0.246 -5.141,-4.109 -10.785,-3.074 -2.395,5.481 5.234,0.918 4.629,4.609 -3.867,4.356 -11.555,4.883 -15.414,9.258 -3.258,-1.379 -4.559,-4.707 -9.25,-4.636 -1.063,4.148 3.187,2.988 4.625,4.636 -8.594,5.547 -18.946,7.539 -27.739,1.532 0.458,3.156 4.172,3.019 4.625,6.164 -9.078,2.058 -19.542,2.636 -24.656,-3.086 -0.199,2.773 1.887,3.254 1.543,6.172 -13.949,0.234 -19.097,0.925 -23.121,-7.708 -7.215,0.188 1.676,2.239 0,6.165 -12.531,0.722 -17.547,-4.422 -22.305,-10.965 1.196,1.375 -0.695,3.66 -0.808,6.336 -7.008,-3.77 -20.0627,-1.496 -18.4924,-13.868 -4.6289,-1.543 -2.7304,3.438 -3.082,6.172 -7.8203,-4.511 -18.0273,-6.64 -18.4883,-18.496 -2.0976,0.489 -1.2812,3.867 -1.539,6.172 -6.8125,-1.933 -9.9922,-7.488 -15.4141,-10.801 -0.7734,-4.843 3.3594,-6.035 0,-9.238 -2.0938,0.469 -1.2734,3.848 -1.5391,6.152 -10.0468,-3.039 -14.6718,-13.523 -13.8672,-23.105 -2.8515,0.234 -0.9531,5.215 -3.0859,6.172 -4.2227,-4.004 -6.8008,-9.641 -10.7891,-13.875 -0.2265,-4.731 5.4219,-6.926 1.5352,-10.793 -2.0586,1.015 -2.8594,3.301 -3.0742,6.152 -4.3633,-3.847 -4.8906,-11.543 -9.2461,-15.39 -0.0078,-5.137 5.0117,-5.262 4.6211,-10.782 -4.1446,-1.074 -2.9766,3.164 -4.6211,4.61 -5.6914,-6.543 -8.38283,-19.414 -1.5391,-26.192 -4.207,-1.125 -3.1054,3.047 -6.16795,3.086 -2.61719,-4.062 -0.15234,-13.203 -3.08203,-16.953 0.14453,-3.965 6.01958,-2.207 6.16798,-6.172 0.2578,-6.504 -2.3711,0.028 -4.62892,0 -3.52734,-2.637 -0.5625,-11.758 -1.53906,-16.953 1.36719,-3.769 8.60158,-1.672 7.71098,-7.695 -4.21098,-1.133 -3.1055,3.066 -6.17192,3.086 0.6836,-10.625 0.92578,-21.7 10.78512,-23.125 -0.2304,-3.828 -5.2148,-0.45 -6.1562,0 2.3281,-8.965 2.3437,-20.2542 13.8672,-20.0394 0.4648,-6.289 -3.2149,-0.8203 -6.1641,-1.5351 3.4141,-8.4063 5.1563,-18.4649 16.9492,-18.5039 0.4649,-6.2891 -2.1328,0.2617 -6.164,-1.5235 C 35.6563,66.2227 40.4297,58.1445 52.6211,57.5 52.1445,55.4102 48.7617,56.2109 46.4492,55.957 51,48.2031 56.8125,40.5273 68.0273,43.6211 c 2.3985,-5.4766 -5.2343,-0.9258 -4.625,-4.6172 3.7422,-4.4726 10.6641,-5.7734 13.875,-10.7891 4.8711,-0.246 5.1485,4.0899 10.7774,3.086 0.4766,-3.5664 -4.4453,-1.7305 -4.6133,-4.6211 6.6289,-5.3906 15.3867,-10.0391 24.6566,-4.6289 -0.457,-3.1445 -4.172,-3.0274 -4.621,-6.1602 11.027,-2.8633 16.992,-6.04685 26.195,0 -0.551,-2.0234 -2.719,-2.4336 -3.086,-4.6211 8.605,-5.70309 20.469,-2.36325 26.195,3.0782 -0.015,-3.0586 -4.203,-1.9649 -3.078,-6.16411 1.086,-1.49609 11.231,1.00391 16.953,0 4.344,0.27344 1.918,7.32421 7.703,6.16411 -0.804,-2.2852 -2.281,-3.8789 -3.086,-6.16411 6.372,0.83985 12.129,2.24611 18.497,3.08591 3.507,1.1133 0.457,8.7891 6.168,7.6953 0.195,-2.7539 -1.891,-3.2421 -1.547,-6.1523 9.945,2.3828 20.043,4.6094 21.578,15.4023 3.832,-0.2265 0.445,-5.2187 0,-6.164 7.808,-0.1172 9.961,5.4492 16.945,6.164 -1.234,5.3399 2.301,5.9336 1.543,10.7891 6.297,0.4688 -0.254,-2.1406 1.539,-6.1719 6.926,1.3008 9.18,7.2657 15.414,9.2578 0,3.5938 0,7.1875 0,10.7813 4.637,1.5625 2.731,-3.4297 3.082,-6.1719 5.551,3.1953 8.317,9.1602 13.871,12.3321 0.754,4.875 -2.781,5.4414 -1.547,10.7929 4.645,1.5547 2.735,-3.4179 3.086,-6.164 5.723,3.0117 6.977,10.4804 12.328,13.8671 0.254,4.875 -4.093,5.1485 -3.082,10.793 5.477,2.3828 0.93,-5.2344 4.622,-4.6289 4.355,3.8594 4.89,11.543 9.25,15.4102 -1.372,3.2424 -4.696,4.5504 -4.625,9.2574 4.144,1.055 2.976,-3.203 4.625,-4.629 5.566,8.594 7.546,18.946 1.535,27.735 3.558,0.469 1.715,-4.445 4.629,-4.617 4.515,7.234 4.191,21.09 -3.086,24.656 1.519,4.726 4.113,-1.777 6.168,-1.555 5.195,9.367 -1.422,20.141 -6.168,24.66 2.765,0.204 3.25,-1.882 6.168,-1.543 -0.442,6.25 -2.649,10.711 -3.082,16.961 -0.368,4.25 -8.7,0.547 -7.707,6.157 3.218,0.664 4.082,-1.047 6.16,-1.536 0.176,7.422 -7.071,13.711 -4.617,18.497 C 336.148,106.895 255.73,-3.47656 143.539,5.09766 68.4219,10.8594 11.5977,68.4063 4.84375,137.637 -4.42578,232.645 73.6563,319.434 172.813,304.063 c 55.183,-8.575 99.687,-38.106 120.207,-90.918 -3.512,1.113 -7.875,1.367 -10.79,3.085 1.887,4.688 5.879,-2.265 7.708,1.536 -5.165,6.648 -5.469,16.367 -16.047,17.605 -4.149,2.871 1.605,1.067 5.257,0.879 -3.703,6.074 -8.281,11.238 -12.332,16.965 -3.628,0.039 -5.332,-1.301 -10.046,-0.188 -1.551,4.629 4.242,1.368 6.964,1.719 -5.914,6.777 -10.336,16.668 -23.109,12.324 z"
         style="fill:none;stroke:#1b458f;stroke-width:3.5;stroke-linecap:butt;stroke-linejoin:miter;stroke-miterlimit:10;stroke-dasharray:none;stroke-opacity:1"
         id="path52" />
      <path
         d="m 152.262,247.578 c -51.637,-1.406 -86.9104,-41.504 -89.5315,-87.383 -2.9649,-51.777 37.5585,-97.4528 92.7655,-97.07 51.234,0.332 92.082,42.578 91.692,92.754 -0.2,26.035 -9.063,41.992 -22.653,58.242 -16.191,19.395 -38.152,34.395 -72.273,33.457 z m -93.8479,-97.09 c 4.3007,53.711 36.4375,96.817 92.7699,99.239 29.339,1.269 54.679,-10.848 71.195,-28.039 3.406,-3.79 3.07,1.632 6.469,-2.157 0.199,-2.461 7.484,-8.437 2.164,-6.472 10.605,-9.914 18.734,-26.672 20.492,-46.387 C 257.02,104.773 210.352,53.3984 144.711,58.8086 120.508,60.7813 98.5117,72.6367 83.2266,89.0039 72.543,100.43 57.6719,123.672 60.5703,147.246 c -1.5117,-17.187 -3.3008,3.301 -3.2344,9.727 0.8946,84.812 110.8831,128.84 167.1991,64.715 -19.574,18.82 -45.14,32.902 -81.98,29.132 C 93.6797,245.801 58.4063,203.203 58.4141,150.488"
         style="fill:#1b458f;fill-opacity:1;fill-rule:evenodd;stroke:none"
         id="path54" />
      <path
         d="m 152.262,247.578 c -51.637,-1.406 -86.9104,-41.504 -89.5315,-87.383 -2.9649,-51.777 37.5585,-97.4528 92.7655,-97.07 51.234,0.332 92.082,42.578 91.692,92.754 -0.2,26.035 -9.063,41.992 -22.653,58.242 -16.191,19.395 -38.152,34.395 -72.273,33.457 z m -93.8479,-97.09 c 4.3007,53.711 36.4375,96.817 92.7699,99.239 29.339,1.269 54.679,-10.848 71.195,-28.039 3.406,-3.79 3.07,1.632 6.469,-2.157 0.199,-2.461 7.484,-8.437 2.164,-6.472 10.605,-9.914 18.734,-26.672 20.492,-46.387 C 257.02,104.773 210.352,53.3984 144.711,58.8086 120.508,60.7813 98.5117,72.6367 83.2266,89.0039 72.543,100.43 57.6719,123.672 60.5703,147.246 c -1.5117,-17.187 -3.3008,3.301 -3.2344,9.727 0.8946,84.812 110.8831,128.84 167.1991,64.715 -19.574,18.82 -45.14,32.902 -81.98,29.132 C 93.6797,245.801 58.4063,203.203 58.4141,150.488 Z"
         style="fill:none;stroke:#1b458f;stroke-width:3.5;stroke-linecap:butt;stroke-linejoin:miter;stroke-miterlimit:10;stroke-dasharray:none;stroke-opacity:1"
         id="path56" />
      <path
         d="m 235.043,156.035 c 0,-43.918 -35.605,-79.5311 -79.531,-79.5311 -43.926,0 -79.5315,35.6131 -79.5315,79.5311 0,43.926 35.6055,79.539 79.5315,79.539 43.926,0 79.531,-35.613 79.531,-79.539 z"
         style="fill:none;stroke:#1b458f;stroke-width:5.40431;stroke-linecap:butt;stroke-linejoin:miter;stroke-miterlimit:10;stroke-dasharray:none;stroke-opacity:1"
         id="path58" />
      <path
         d="m 206.695,156.035 c 0,-28.262 -22.918,-51.172 -51.183,-51.172 -28.27,0 -51.188,22.91 -51.188,51.172 0,28.274 22.918,51.192 51.188,51.192 28.265,0 51.183,-22.918 51.183,-51.192"
         style="fill:#1b458f;fill-opacity:1;fill-rule:evenodd;stroke:none"
         id="path60" />
      <path
         d="m 206.695,156.035 c 0,-28.262 -22.918,-51.172 -51.183,-51.172 -28.27,0 -51.188,22.91 -51.188,51.172 0,28.274 22.918,51.192 51.188,51.192 28.265,0 51.183,-22.918 51.183,-51.192 z"
         style="fill:none;stroke:#1b458f;stroke-width:5.3508;stroke-linecap:butt;stroke-linejoin:miter;stroke-miterlimit:10;stroke-dasharray:none;stroke-opacity:1"
         id="path62" />
    </g>
  </g>
</svg>
