<?xml version="1.0" encoding="UTF-8" standalone="no"?>
<!-- Created with Inkscape (http://www.inkscape.org/) -->

<svg
   version="1.1"
   id="svg2"
   width="415.74667"
   height="226.77333"
   viewBox="0 0 415.74667 226.77333"
   sodipodi:docname="Kremers logo.eps"
   xmlns:inkscape="http://www.inkscape.org/namespaces/inkscape"
   xmlns:sodipodi="http://sodipodi.sourceforge.net/DTD/sodipodi-0.dtd"
   xmlns="http://www.w3.org/2000/svg"
   xmlns:svg="http://www.w3.org/2000/svg">
  <defs
     id="defs6" />
  <sodipodi:namedview
     id="namedview4"
     pagecolor="#ffffff"
     bordercolor="#000000"
     borderopacity="0.25"
     inkscape:showpageshadow="2"
     inkscape:pageopacity="0.0"
     inkscape:pagecheckerboard="0"
     inkscape:deskcolor="#d1d1d1" />
  <g
     id="g8"
     inkscape:groupmode="layer"
     inkscape:label="ink_ext_XXXXXX"
     transform="matrix(1.3333333,0,0,-1.3333333,0,226.77333)">
    <g
       id="g10"
       transform="scale(0.1)">
      <path
         d="M 3118.11,1700.79 H -0.00390625 V 0 H 3118.11 v 1700.79 z m -40,-40 V 40 H 39.9961 V 1660.79 H 3078.11"
         style="fill:#231f20;fill-opacity:1;fill-rule:nonzero;stroke:none"
         id="path12" />
      <path
         d="M 2608.81,1700.79 V 0"
         style="fill:none;stroke:#231f20;stroke-width:40;stroke-linecap:butt;stroke-linejoin:miter;stroke-miterlimit:10;stroke-dasharray:none;stroke-opacity:1"
         id="path14" />
      <path
         d="M 0.929688,680.309 H 2608.81"
         style="fill:none;stroke:#231f20;stroke-width:40;stroke-linecap:butt;stroke-linejoin:miter;stroke-miterlimit:10;stroke-dasharray:none;stroke-opacity:1"
         id="path16" />
      <path
         d="m 2716.53,282.328 233.65,-82.789 v 75.93 h 31.31 V 150.191 l -233.63,83.161 v -74.883 h -31.33 v 123.859"
         style="fill:#231f20;fill-opacity:1;fill-rule:nonzero;stroke:none"
         id="path18" />
      <path
         d="m 2896.93,419.621 -120.97,-22.859 120.9,-23.981 z m -180.4,-5.262 264.96,59.75 -0.03,-38.379 -55.05,-10.558 0.02,-57.883 55.07,-10.5 -0.01,-34.937 -264.96,55.777 v 36.73"
         style="fill:#231f20;fill-opacity:1;fill-rule:nonzero;stroke:none"
         id="path20" />
      <path
         d="m 2896.93,614.988 -120.97,-22.859 120.9,-23.981 z m -180.4,-5.258 264.96,59.75 -0.03,-38.371 -55.05,-10.57 0.02,-57.879 55.07,-10.5 -0.01,-34.941 L 2716.53,573 v 36.73"
         style="fill:#231f20;fill-opacity:1;fill-rule:nonzero;stroke:none"
         id="path22" />
      <path
         d="m 2716.53,752.141 167.76,54.004 -167.76,0.722 v 34.91 h 264.96 l 0.05,-36.855 -167.76,-53.992 167.71,-0.586 v -34.922 h -264.96 v 36.719"
         style="fill:#231f20;fill-opacity:1;fill-rule:nonzero;stroke:none"
         id="path24" />
      <path
         d="m 2950.18,935.848 c 0,20.636 -8.94,35.156 -26.82,43.558 -17.88,8.399 -42.79,12.602 -74.7,12.602 -32.88,0 -57.9,-4.746 -75.06,-14.223 -17.17,-9.484 -25.74,-23.461 -25.74,-41.937 z m -233.65,-36.719 v 42.48 c 0,32.157 12.61,55.012 37.81,68.581 25.2,13.55 57.48,20.33 96.84,20.33 34.8,0 65.21,-6.6 91.26,-19.8 26.04,-13.193 39.05,-35.275 39.05,-66.236 v -45.355 h -264.96"
         style="fill:#231f20;fill-opacity:1;fill-rule:nonzero;stroke:none"
         id="path26" />
      <path
         d="m 2896.93,1161.17 -120.97,-22.85 120.9,-23.99 z m -180.4,-5.26 264.96,59.77 -0.03,-38.39 -55.05,-10.57 0.02,-57.88 55.07,-10.49 -0.01,-34.95 -264.96,55.79 v 36.72"
         style="fill:#231f20;fill-opacity:1;fill-rule:nonzero;stroke:none"
         id="path28" />
      <path
         d="m 2716.53,1301.21 176.78,53.27 -176.78,54.01 v 39.6 h 264.96 v -34.92 l -176.42,-0.11 150.43,-44.45 0.15,-28.05 -150.51,-43.48 176.35,-0.55 v -34.92 h -264.96 v 39.6"
         style="fill:#231f20;fill-opacity:1;fill-rule:nonzero;stroke:none"
         id="path30" />
      <path
         d="m 156.84,522.871 h 49.578 V 376.539 h 71.469 v 146.332 h 49.586 V 165.07 H 277.887 V 334.25 H 206.418 V 165.07 H 156.84 v 357.801"
         style="fill:#231f20;fill-opacity:1;fill-rule:nonzero;stroke:none"
         id="path32" />
      <path
         d="m 448.406,522.828 39.012,-149.988 38.289,149.93 49.219,0.101 -63.199,-213.422 V 165.07 h -49.59 l 0.004,144.379 -65.641,213.422 51.906,-0.043"
         style="fill:#231f20;fill-opacity:1;fill-rule:nonzero;stroke:none"
         id="path34" />
      <path
         d="m 693.539,342.512 c 20.09,0 34.356,6.328 42.785,18.968 8.426,12.629 12.637,29.809 12.637,51.52 0,21.398 -4.539,38 -13.606,49.828 -9.078,11.832 -23.015,17.75 -41.816,17.75 z m -49.582,180.359 h 50.078 c 34.028,0 60.348,-8.75 79,-26.25 18.629,-17.512 27.949,-45.691 27.949,-84.59 0,-34.359 -8.355,-61.582 -25.035,-81.679 -16.703,-20.09 -41.41,-30.133 -74.14,-30.133 h -8.27 V 165.07 h -49.582 v 357.801"
         style="fill:#231f20;fill-opacity:1;fill-rule:nonzero;stroke:none"
         id="path36" />
      <path
         d="m 959.469,202.5 c 16.199,0 27.301,12.879 33.301,38.648 5.992,25.782 8.99,63.762 8.99,114 0,49.911 -3.647,84.114 -10.936,102.59 -7.297,18.461 -17.75,27.703 -31.355,27.703 -13.617,0 -24.153,-11.351 -31.602,-34.031 -7.461,-22.691 -11.183,-61.09 -11.183,-115.219 0,-42.14 2.992,-74.953 8.992,-98.429 5.992,-23.524 17.262,-35.262 33.793,-35.262 z m 0,327.672 c 26.57,0 46.741,-8.524 60.521,-25.531 13.77,-17.012 22.84,-39.129 27.22,-66.352 4.38,-27.23 6.57,-58.668 6.57,-94.309 0,-57.378 -6.8,-102.761 -20.42,-136.128 -13.62,-33.391 -38.247,-50.071 -73.891,-50.071 -30.145,0 -53.477,12.481 -70.008,37.438 -16.527,24.953 -24.789,74.531 -24.789,148.761 0,57.668 6.797,103.129 20.414,136.348 13.613,33.231 38.406,49.844 74.383,49.844"
         style="fill:#231f20;fill-opacity:1;fill-rule:nonzero;stroke:none"
         id="path38" />
      <path
         d="m 1169.97,478.148 h -63.2 v 44.723 h 175.98 v -44.723 h -63.2 V 165.07 h -49.58 v 313.078"
         style="fill:#231f20;fill-opacity:1;fill-rule:nonzero;stroke:none"
         id="path40" />
      <path
         d="m 1356,522.871 h 49.58 V 376.539 h 71.46 v 146.332 h 49.59 V 165.07 h -49.59 v 169.18 h -71.46 V 165.07 H 1356 v 357.801"
         style="fill:#231f20;fill-opacity:1;fill-rule:nonzero;stroke:none"
         id="path42" />
      <path
         d="m 1743.45,522.871 v -42.293 h -80.69 V 376.539 h 80.69 V 334.25 h -80.69 V 207.359 h 80.69 V 165.07 h -130.29 v 357.801 h 130.29"
         style="fill:#231f20;fill-opacity:1;fill-rule:nonzero;stroke:none"
         id="path44" />
      <path
         d="m 1871.47,522.871 v -162.82 l 79.67,162.597 53.05,0.223 -85.55,-167.723 91.38,-190.078 -55.97,-0.281 -81.61,177.59 -0.97,-177.309 h -49.59 v 357.801 h 49.59"
         style="fill:#231f20;fill-opacity:1;fill-rule:nonzero;stroke:none"
         id="path46" />
      <path
         d="m 2209.35,522.871 v -42.293 h -80.7 V 376.539 h 80.7 V 334.25 h -80.7 V 207.359 h 80.7 V 165.07 h -130.29 v 357.801 h 130.29"
         style="fill:#231f20;fill-opacity:1;fill-rule:nonzero;stroke:none"
         id="path48" />
      <path
         d="m 2331.85,522.871 72.93,-226.543 0.97,226.543 h 47.15 V 165.07 l -49.78,-0.058 -72.92,226.539 -0.78,-226.481 h -47.16 v 357.801 h 49.59"
         style="fill:#231f20;fill-opacity:1;fill-rule:nonzero;stroke:none"
         id="path50" />
      <path
         d="m 229.934,1442.66 v -240.02 l 117.437,239.7 78.203,0.32 L 299.449,1195.41 434.164,915.223 351.648,914.816 231.352,1176.6 229.934,915.223 H 156.84 v 527.437 h 73.094"
         style="fill:#231f20;fill-opacity:1;fill-rule:nonzero;stroke:none"
         id="path52" />
      <path
         d="m 584.668,1219.07 c 36.301,0 62.809,6.45 79.543,19.35 16.719,12.9 25.078,34.4 25.078,64.5 0,22.93 -6.93,41.56 -20.777,55.9 -13.86,14.33 -33.449,21.49 -58.77,21.49 h -25.074 z m -73.098,223.59 h 118.243 c 40.125,0 72.851,-13.15 98.179,-39.41 25.317,-26.29 37.977,-61.4 37.977,-105.35 0,-29.14 -7.875,-56.25 -23.641,-81.34 -15.769,-25.08 -37.98,-41.45 -66.648,-49.09 l 106.773,-252.247 -84,-0.071 -96.777,241.488 -17.008,0.09 V 915.223 H 511.57 v 527.437"
         style="fill:#231f20;fill-opacity:1;fill-rule:nonzero;stroke:none"
         id="path54" />
      <path
         d="m 1049.75,1442.66 v -62.35 H 930.793 v -153.36 h 118.957 v -62.34 H 930.793 V 977.566 H 1049.75 V 915.223 H 857.699 v 527.437 h 192.051"
         style="fill:#231f20;fill-opacity:1;fill-rule:nonzero;stroke:none"
         id="path56" />
      <path
         d="m 1218.39,1442.66 106.05,-351.89 107.5,351.89 h 78.83 V 915.223 h -69.51 l -0.21,351.217 -88.49,-299.456 -55.84,-0.312 -86.55,299.598 -1.1,-351.047 h -69.51 v 527.437 h 78.83"
         style="fill:#231f20;fill-opacity:1;fill-rule:nonzero;stroke:none"
         id="path58" />
      <path
         d="m 1790.73,1442.66 v -62.35 h -118.96 v -153.36 h 118.96 v -62.34 H 1671.77 V 977.566 h 118.96 v -62.343 h -192.06 v 527.437 h 192.06"
         style="fill:#231f20;fill-opacity:1;fill-rule:nonzero;stroke:none"
         id="path60" />
      <path
         d="m 1952.45,1219.07 c 36.3,0 62.82,6.45 79.54,19.35 16.72,12.9 25.09,34.4 25.09,64.5 0,22.93 -6.94,41.56 -20.78,55.9 -13.87,14.33 -33.46,21.49 -58.77,21.49 h -25.08 z m -73.1,223.59 h 118.25 c 40.13,0 72.85,-13.15 98.17,-39.41 25.32,-26.29 37.99,-61.4 37.99,-105.35 0,-29.14 -7.88,-56.25 -23.66,-81.34 -15.76,-25.08 -37.97,-41.45 -66.64,-49.09 l 106.77,-252.247 -83.99,-0.071 -96.78,241.488 -17.01,0.09 V 915.223 h -73.1 v 527.437"
         style="fill:#231f20;fill-opacity:1;fill-rule:nonzero;stroke:none"
         id="path62" />
      <path
         d="m 2377.64,1314.38 c 0,21.97 -4.28,39.66 -12.89,53.03 -8.6,13.38 -21.98,20.07 -40.12,20.07 -13.87,0 -24.98,-5.37 -33.33,-16.12 -8.36,-10.75 -12.54,-23.77 -12.54,-39.06 0,-14.34 3.69,-29.15 11.11,-44.43 7.39,-15.3 20.17,-31.78 38.34,-49.45 l 59.47,-58.05 c 24.84,-23.89 41.93,-46.7 51.24,-68.44 9.32,-21.74 13.98,-46.94 13.98,-75.6 0,-37.744 -11.12,-69.15 -33.32,-94.24 -22.22,-25.078 -53.39,-37.621 -93.53,-37.621 -36.31,0 -65.56,10.863 -87.78,32.609 -22.22,21.731 -35.48,52.902 -39.78,93.522 l 69.52,22.21 c 2.39,-25.8 8.47,-46.58 18.28,-62.345 9.78,-15.766 23.28,-23.649 40.48,-23.649 14.33,0 26.75,5.723 37.26,17.176 10.51,11.457 15.77,27.208 15.77,47.258 0,15.74 -3.85,31.61 -11.51,47.6 -7.68,15.99 -21.1,33.52 -40.27,52.61 l -57.16,56.78 c -23.4,23.41 -40.12,46.11 -50.16,68.08 -10.03,21.97 -15.04,45.87 -15.04,71.68 0,37.27 11.57,67.48 34.76,90.65 23.16,23.17 50.75,34.76 82.76,34.76 36.31,0 65.46,-10.28 87.43,-30.82 21.98,-20.54 32.97,-48.73 32.97,-84.55 l -65.94,-23.66"
         style="fill:#231f20;fill-opacity:1;fill-rule:nonzero;stroke:none"
         id="path64" />
    </g>
  </g>
</svg>
