<?xml version="1.0" encoding="UTF-8" standalone="no"?>
<!-- Created with Inkscape (http://www.inkscape.org/) -->

<svg
   version="1.1"
   id="svg2"
   width="549.56"
   height="79.400002"
   viewBox="0 0 549.56 79.400002"
   sodipodi:docname="LOGO_VIRO.eps"
   xmlns:inkscape="http://www.inkscape.org/namespaces/inkscape"
   xmlns:sodipodi="http://sodipodi.sourceforge.net/DTD/sodipodi-0.dtd"
   xmlns="http://www.w3.org/2000/svg"
   xmlns:svg="http://www.w3.org/2000/svg">
  <defs
     id="defs6" />
  <sodipodi:namedview
     id="namedview4"
     pagecolor="#ffffff"
     bordercolor="#000000"
     borderopacity="0.25"
     inkscape:showpageshadow="2"
     inkscape:pageopacity="0.0"
     inkscape:pagecheckerboard="0"
     inkscape:deskcolor="#d1d1d1" />
  <g
     id="g8"
     inkscape:groupmode="layer"
     inkscape:label="ink_ext_XXXXXX"
     transform="matrix(1.3333333,0,0,-1.3333333,0,79.4)">
    <g
       id="g10"
       transform="scale(0.1)">
      <path
         d="M 282.035,583.539 506.172,147.434 1195.98,147.953 1128.43,15.6016 292.406,14.8594 0,583.539 h 282.035"
         style="fill:#00adef;fill-opacity:1;fill-rule:nonzero;stroke:none"
         id="path12" />
      <path
         d="m 1420.16,582.793 -57.2,-106.676 H 620.277 l 56.106,106.676 h 743.777"
         style="fill:#00adef;fill-opacity:1;fill-rule:nonzero;stroke:none"
         id="path14" />
      <path
         d="M 1303.35,356.945 1246.12,250.41 h -741.6 l 56.121,106.535 h 742.709"
         style="fill:#00adef;fill-opacity:1;fill-rule:nonzero;stroke:none"
         id="path16" />
      <path
         d="M 2042.58,11.8945 H 1819.83 L 1585.75,583.539 h 201.8 l 145.7,-425.215 h 2.13 l 145.71,425.215 h 201.96 L 2042.58,11.8945"
         style="fill:#231f20;fill-opacity:1;fill-rule:nonzero;stroke:none"
         id="path18" />
      <path
         d="m 2338.07,583.539 h 193.56 V 11.8945 H 2338.07 V 583.539"
         style="fill:#231f20;fill-opacity:1;fill-rule:nonzero;stroke:none"
         id="path20" />
      <path
         d="m 2859.38,335.309 h 162.36 c 58.26,0 89.56,24.011 89.56,67.261 0,42.426 -43.68,61.641 -97.85,61.641 h -154.07 z m -193.53,248.23 h 378.81 c 131.1,0 260.08,-45.656 260.08,-160.945 0,-61.641 -38.46,-120.094 -116.49,-143.274 v -1.664 c 79.12,-14.394 102.04,-82.5 108.28,-136.843 2.02,-24.051 5.18,-108.0591 31.21,-128.9185 H 3136.2 c -16.57,19.25 -19.71,75.3047 -21.79,91.3085 C 3109.15,160.855 3096.71,220 3006.2,220 H 2859.38 V 11.8945 H 2665.85 V 583.539"
         style="fill:#231f20;fill-opacity:1;fill-rule:nonzero;stroke:none"
         id="path22" />
      <path
         d="m 3755.42,128.035 c 124.9,0 172.77,84.793 172.77,169.645 0,84.808 -47.87,169.687 -172.77,169.687 -124.87,0 -172.69,-84.879 -172.69,-169.687 0,-84.852 47.82,-169.645 172.69,-169.645 z m 0,467.434 c 234.11,0 366.3,-132.055 366.3,-297.789 C 4121.72,132.055 3989.53,0 3755.42,0 3521.17,0 3389.1,132.055 3389.1,297.68 c 0,165.734 132.07,297.789 366.32,297.789"
         style="fill:#231f20;fill-opacity:1;fill-rule:nonzero;stroke:none"
         id="path24" />
    </g>
  </g>
</svg>
